SplineFontDB: 3.2
FontName: Untitled1
FullName: Untitled1
FamilyName: Untitled1
Weight: Regular
Copyright: Copyright (c) 2025, EloiStree
UComments: "2025-7-27: Created with FontForge (http://fontforge.org)"
Version: 001.000
ItalicAngle: 0
UnderlinePosition: -100
UnderlineWidth: 50
Ascent: 800
Descent: 200
InvalidEm: 0
LayerCount: 2
Layer: 0 0 "Back" 1
Layer: 1 0 "Fore" 0
XUID: [1021 438 763870636 24502]
StyleMap: 0x0000
FSType: 0
OS2Version: 0
OS2_WeightWidthSlopeOnly: 0
OS2_UseTypoMetrics: 1
CreationTime: 1753643378
ModificationTime: 1753652749
OS2TypoAscent: 0
OS2TypoAOffset: 1
OS2TypoDescent: 0
OS2TypoDOffset: 1
OS2TypoLinegap: 90
OS2WinAscent: 0
OS2WinAOffset: 1
OS2WinDescent: 0
OS2WinDOffset: 1
HheadAscent: 0
HheadAOffset: 1
HheadDescent: 0
HheadDOffset: 1
OS2Vendor: 'PfEd'
MarkAttachClasses: 1
DEI: 91125
Encoding: ISO8859-1
UnicodeInterp: none
NameList: AGL For New Fonts
DisplaySize: -48
AntiAlias: 1
FitToEm: 0
WinInfo: 0 27 14
BeginPrivate: 0
EndPrivate
BeginChars: 256 256

StartChar: uni0000
Encoding: 0 0 0
Width: 123
Flags: HWO
LayerCount: 2
Fore
SplineSet
-0 46 m 1
 123 46 l 1
 123 9 l 1
 0 9 l 1
 -0 46 l 1
EndSplineSet
EndChar

StartChar: ydieresis
Encoding: 255 255 1
Width: 123
Flags: HW
LayerCount: 2
Fore
SplineSet
122 -75 m 1
 0 -75 l 1
 0 48 l 1
 122 48 l 1
 122 -75 l 1
122 -200 m 1
 0 -200 l 1
 0 -78 l 1
 122 -78 l 1
 122 -200 l 1
122 302 m 1
 0 302 l 1
 0 424 l 1
 122 424 l 1
 122 302 l 1
122 176 m 1
 0 176 l 1
 0 298 l 1
 122 298 l 1
 122 176 l 1
122 51 m 1
 0 51 l 1
 0 173 l 1
 122 173 l 1
 122 51 l 1
122 427 m 1
 0 427 l 1
 0 549 l 1
 122 549 l 1
 122 427 l 1
122 552 m 1
 0 552 l 1
 0 675 l 1
 122 675 l 1
 122 552 l 1
122 678 m 1
 0 678 l 1
 0 800 l 1
 122 800 l 1
 122 678 l 1
EndSplineSet
Validated: 1
EndChar

StartChar: uni0001
Encoding: 1 1 2
Width: 123
Flags: HW
LayerCount: 2
Fore
SplineSet
122 678 m 1
 0 678 l 1
 0 800 l 1
 122 800 l 1
 122 678 l 1
EndSplineSet
Validated: 1
EndChar

StartChar: uni0002
Encoding: 2 2 3
Width: 123
Flags: HW
LayerCount: 2
Fore
SplineSet
122 552 m 1
 0 552 l 1
 0 675 l 1
 122 675 l 1
 122 552 l 1
EndSplineSet
Validated: 1
EndChar

StartChar: uni0003
Encoding: 3 3 4
Width: 123
Flags: HW
LayerCount: 2
Fore
SplineSet
122 552 m 1
 0 552 l 1
 0 675 l 1
 122 675 l 1
 122 552 l 1
122 678 m 1
 0 678 l 1
 0 800 l 1
 122 800 l 1
 122 678 l 1
EndSplineSet
Validated: 1
EndChar

StartChar: uni0004
Encoding: 4 4 5
Width: 123
Flags: HW
LayerCount: 2
Fore
SplineSet
122 427 m 5
 0 427 l 5
 0 549 l 5
 122 549 l 5
 122 427 l 5
EndSplineSet
Validated: 1
EndChar

StartChar: uni0005
Encoding: 5 5 6
Width: 123
Flags: HW
LayerCount: 2
Fore
SplineSet
122 427 m 5
 0 427 l 5
 0 549 l 5
 122 549 l 5
 122 427 l 5
122 678 m 1
 0 678 l 1
 0 800 l 1
 122 800 l 1
 122 678 l 1
EndSplineSet
Validated: 1
EndChar

StartChar: uni0006
Encoding: 6 6 7
Width: 123
Flags: HW
LayerCount: 2
Fore
SplineSet
122 427 m 5
 0 427 l 5
 0 549 l 5
 122 549 l 5
 122 427 l 5
122 552 m 1
 0 552 l 1
 0 675 l 1
 122 675 l 1
 122 552 l 1
EndSplineSet
Validated: 1
EndChar

StartChar: uni0007
Encoding: 7 7 8
Width: 123
Flags: HW
LayerCount: 2
Fore
SplineSet
122 427 m 5
 0 427 l 5
 0 549 l 5
 122 549 l 5
 122 427 l 5
122 552 m 1
 0 552 l 1
 0 675 l 1
 122 675 l 1
 122 552 l 1
122 678 m 1
 0 678 l 1
 0 800 l 1
 122 800 l 1
 122 678 l 1
EndSplineSet
Validated: 1
EndChar

StartChar: uni0008
Encoding: 8 8 9
Width: 123
Flags: HW
LayerCount: 2
Fore
SplineSet
122 302 m 5
 0 302 l 5
 0 424 l 5
 122 424 l 5
 122 302 l 5
EndSplineSet
Validated: 1
EndChar

StartChar: uni0009
Encoding: 9 9 10
Width: 123
Flags: HW
LayerCount: 2
Fore
SplineSet
122 302 m 5
 0 302 l 5
 0 424 l 5
 122 424 l 5
 122 302 l 5
122 678 m 1
 0 678 l 1
 0 800 l 1
 122 800 l 1
 122 678 l 1
EndSplineSet
Validated: 1
EndChar

StartChar: uni000A
Encoding: 10 10 11
Width: 123
Flags: HW
LayerCount: 2
Fore
SplineSet
122 302 m 5
 0 302 l 5
 0 424 l 5
 122 424 l 5
 122 302 l 5
122 552 m 1
 0 552 l 1
 0 675 l 1
 122 675 l 1
 122 552 l 1
EndSplineSet
Validated: 1
EndChar

StartChar: uni000B
Encoding: 11 11 12
Width: 123
Flags: HW
LayerCount: 2
Fore
SplineSet
122 302 m 5
 0 302 l 5
 0 424 l 5
 122 424 l 5
 122 302 l 5
122 552 m 1
 0 552 l 1
 0 675 l 1
 122 675 l 1
 122 552 l 1
122 678 m 1
 0 678 l 1
 0 800 l 1
 122 800 l 1
 122 678 l 1
EndSplineSet
Validated: 1
EndChar

StartChar: uni000C
Encoding: 12 12 13
Width: 123
Flags: HW
LayerCount: 2
Fore
SplineSet
122 302 m 5
 0 302 l 5
 0 424 l 5
 122 424 l 5
 122 302 l 5
122 427 m 1
 0 427 l 1
 0 549 l 1
 122 549 l 1
 122 427 l 1
EndSplineSet
Validated: 1
EndChar

StartChar: uni000D
Encoding: 13 13 14
Width: 123
Flags: HW
LayerCount: 2
Fore
SplineSet
122 302 m 5
 0 302 l 5
 0 424 l 5
 122 424 l 5
 122 302 l 5
122 427 m 1
 0 427 l 1
 0 549 l 1
 122 549 l 1
 122 427 l 1
122 678 m 1
 0 678 l 1
 0 800 l 1
 122 800 l 1
 122 678 l 1
EndSplineSet
Validated: 1
EndChar

StartChar: uni000E
Encoding: 14 14 15
Width: 123
Flags: HW
LayerCount: 2
Fore
SplineSet
122 302 m 5
 0 302 l 5
 0 424 l 5
 122 424 l 5
 122 302 l 5
122 427 m 1
 0 427 l 1
 0 549 l 1
 122 549 l 1
 122 427 l 1
122 552 m 1
 0 552 l 1
 0 675 l 1
 122 675 l 1
 122 552 l 1
EndSplineSet
Validated: 1
EndChar

StartChar: uni000F
Encoding: 15 15 16
Width: 123
Flags: HW
LayerCount: 2
Fore
SplineSet
122 302 m 5
 0 302 l 5
 0 424 l 5
 122 424 l 5
 122 302 l 5
122 427 m 1
 0 427 l 1
 0 549 l 1
 122 549 l 1
 122 427 l 1
122 552 m 1
 0 552 l 1
 0 675 l 1
 122 675 l 1
 122 552 l 1
122 678 m 1
 0 678 l 1
 0 800 l 1
 122 800 l 1
 122 678 l 1
EndSplineSet
Validated: 1
EndChar

StartChar: uni0010
Encoding: 16 16 17
Width: 123
Flags: HW
LayerCount: 2
Fore
SplineSet
122 176 m 5
 0 176 l 5
 0 298 l 5
 122 298 l 5
 122 176 l 5
EndSplineSet
Validated: 1
EndChar

StartChar: uni0011
Encoding: 17 17 18
Width: 123
Flags: HW
LayerCount: 2
Fore
SplineSet
122 176 m 5
 0 176 l 5
 0 298 l 5
 122 298 l 5
 122 176 l 5
122 678 m 1
 0 678 l 1
 0 800 l 1
 122 800 l 1
 122 678 l 1
EndSplineSet
Validated: 1
EndChar

StartChar: uni0012
Encoding: 18 18 19
Width: 123
Flags: HW
LayerCount: 2
Fore
SplineSet
122 176 m 5
 0 176 l 5
 0 298 l 5
 122 298 l 5
 122 176 l 5
122 552 m 1
 0 552 l 1
 0 675 l 1
 122 675 l 1
 122 552 l 1
EndSplineSet
Validated: 1
EndChar

StartChar: uni0013
Encoding: 19 19 20
Width: 123
Flags: HW
LayerCount: 2
Fore
SplineSet
122 176 m 5
 0 176 l 5
 0 298 l 5
 122 298 l 5
 122 176 l 5
122 552 m 1
 0 552 l 1
 0 675 l 1
 122 675 l 1
 122 552 l 1
122 678 m 1
 0 678 l 1
 0 800 l 1
 122 800 l 1
 122 678 l 1
EndSplineSet
Validated: 1
EndChar

StartChar: uni0014
Encoding: 20 20 21
Width: 123
Flags: HW
LayerCount: 2
Fore
SplineSet
122 176 m 5
 0 176 l 5
 0 298 l 5
 122 298 l 5
 122 176 l 5
122 427 m 1
 0 427 l 1
 0 549 l 1
 122 549 l 1
 122 427 l 1
EndSplineSet
Validated: 1
EndChar

StartChar: uni0015
Encoding: 21 21 22
Width: 123
Flags: HW
LayerCount: 2
Fore
SplineSet
122 176 m 5
 0 176 l 5
 0 298 l 5
 122 298 l 5
 122 176 l 5
122 427 m 1
 0 427 l 1
 0 549 l 1
 122 549 l 1
 122 427 l 1
122 678 m 1
 0 678 l 1
 0 800 l 1
 122 800 l 1
 122 678 l 1
EndSplineSet
Validated: 1
EndChar

StartChar: uni0016
Encoding: 22 22 23
Width: 123
Flags: HW
LayerCount: 2
Fore
SplineSet
122 176 m 5
 0 176 l 5
 0 298 l 5
 122 298 l 5
 122 176 l 5
122 427 m 1
 0 427 l 1
 0 549 l 1
 122 549 l 1
 122 427 l 1
122 552 m 1
 0 552 l 1
 0 675 l 1
 122 675 l 1
 122 552 l 1
EndSplineSet
Validated: 1
EndChar

StartChar: uni0017
Encoding: 23 23 24
Width: 123
Flags: HW
LayerCount: 2
Fore
SplineSet
122 176 m 5
 0 176 l 5
 0 298 l 5
 122 298 l 5
 122 176 l 5
122 427 m 1
 0 427 l 1
 0 549 l 1
 122 549 l 1
 122 427 l 1
122 552 m 1
 0 552 l 1
 0 675 l 1
 122 675 l 1
 122 552 l 1
122 678 m 1
 0 678 l 1
 0 800 l 1
 122 800 l 1
 122 678 l 1
EndSplineSet
Validated: 1
EndChar

StartChar: uni0018
Encoding: 24 24 25
Width: 123
Flags: HW
LayerCount: 2
Fore
SplineSet
122 176 m 5
 0 176 l 5
 0 298 l 5
 122 298 l 5
 122 176 l 5
122 302 m 1
 0 302 l 1
 0 424 l 1
 122 424 l 1
 122 302 l 1
EndSplineSet
Validated: 1
EndChar

StartChar: uni0019
Encoding: 25 25 26
Width: 123
Flags: HW
LayerCount: 2
Fore
SplineSet
122 176 m 5
 0 176 l 5
 0 298 l 5
 122 298 l 5
 122 176 l 5
122 302 m 1
 0 302 l 1
 0 424 l 1
 122 424 l 1
 122 302 l 1
122 678 m 1
 0 678 l 1
 0 800 l 1
 122 800 l 1
 122 678 l 1
EndSplineSet
Validated: 1
EndChar

StartChar: uni001A
Encoding: 26 26 27
Width: 123
Flags: HW
LayerCount: 2
Fore
SplineSet
122 176 m 5
 0 176 l 5
 0 298 l 5
 122 298 l 5
 122 176 l 5
122 302 m 1
 0 302 l 1
 0 424 l 1
 122 424 l 1
 122 302 l 1
122 552 m 1
 0 552 l 1
 0 675 l 1
 122 675 l 1
 122 552 l 1
EndSplineSet
Validated: 1
EndChar

StartChar: uni001B
Encoding: 27 27 28
Width: 123
Flags: HW
LayerCount: 2
Fore
SplineSet
122 176 m 5
 0 176 l 5
 0 298 l 5
 122 298 l 5
 122 176 l 5
122 302 m 1
 0 302 l 1
 0 424 l 1
 122 424 l 1
 122 302 l 1
122 552 m 1
 0 552 l 1
 0 675 l 1
 122 675 l 1
 122 552 l 1
122 678 m 1
 0 678 l 1
 0 800 l 1
 122 800 l 1
 122 678 l 1
EndSplineSet
Validated: 1
EndChar

StartChar: uni001C
Encoding: 28 28 29
Width: 123
Flags: HW
LayerCount: 2
Fore
SplineSet
122 176 m 5
 0 176 l 5
 0 298 l 5
 122 298 l 5
 122 176 l 5
122 302 m 1
 0 302 l 1
 0 424 l 1
 122 424 l 1
 122 302 l 1
122 427 m 1
 0 427 l 1
 0 549 l 1
 122 549 l 1
 122 427 l 1
EndSplineSet
Validated: 1
EndChar

StartChar: uni001D
Encoding: 29 29 30
Width: 123
Flags: HW
LayerCount: 2
Fore
SplineSet
122 176 m 5
 0 176 l 5
 0 298 l 5
 122 298 l 5
 122 176 l 5
122 302 m 1
 0 302 l 1
 0 424 l 1
 122 424 l 1
 122 302 l 1
122 427 m 1
 0 427 l 1
 0 549 l 1
 122 549 l 1
 122 427 l 1
122 678 m 1
 0 678 l 1
 0 800 l 1
 122 800 l 1
 122 678 l 1
EndSplineSet
Validated: 1
EndChar

StartChar: uni001E
Encoding: 30 30 31
Width: 123
Flags: HW
LayerCount: 2
Fore
SplineSet
122 176 m 5
 0 176 l 5
 0 298 l 5
 122 298 l 5
 122 176 l 5
122 302 m 1
 0 302 l 1
 0 424 l 1
 122 424 l 1
 122 302 l 1
122 427 m 1
 0 427 l 1
 0 549 l 1
 122 549 l 1
 122 427 l 1
122 552 m 1
 0 552 l 1
 0 675 l 1
 122 675 l 1
 122 552 l 1
EndSplineSet
Validated: 1
EndChar

StartChar: uni001F
Encoding: 31 31 32
Width: 123
Flags: HW
LayerCount: 2
Fore
SplineSet
122 176 m 5
 0 176 l 5
 0 298 l 5
 122 298 l 5
 122 176 l 5
122 302 m 1
 0 302 l 1
 0 424 l 1
 122 424 l 1
 122 302 l 1
122 427 m 1
 0 427 l 1
 0 549 l 1
 122 549 l 1
 122 427 l 1
122 552 m 1
 0 552 l 1
 0 675 l 1
 122 675 l 1
 122 552 l 1
122 678 m 1
 0 678 l 1
 0 800 l 1
 122 800 l 1
 122 678 l 1
EndSplineSet
Validated: 1
EndChar

StartChar: space
Encoding: 32 32 33
Width: 123
Flags: HW
LayerCount: 2
Fore
SplineSet
122 51 m 5
 0 51 l 5
 0 173 l 5
 122 173 l 5
 122 51 l 5
EndSplineSet
Validated: 1
EndChar

StartChar: exclam
Encoding: 33 33 34
Width: 123
Flags: HW
LayerCount: 2
Fore
SplineSet
122 51 m 5
 0 51 l 5
 0 173 l 5
 122 173 l 5
 122 51 l 5
122 678 m 1
 0 678 l 1
 0 800 l 1
 122 800 l 1
 122 678 l 1
EndSplineSet
Validated: 1
EndChar

StartChar: quotedbl
Encoding: 34 34 35
Width: 123
Flags: HW
LayerCount: 2
Fore
SplineSet
122 51 m 5
 0 51 l 5
 0 173 l 5
 122 173 l 5
 122 51 l 5
122 552 m 1
 0 552 l 1
 0 675 l 1
 122 675 l 1
 122 552 l 1
EndSplineSet
Validated: 1
EndChar

StartChar: numbersign
Encoding: 35 35 36
Width: 123
Flags: HW
LayerCount: 2
Fore
SplineSet
122 51 m 5
 0 51 l 5
 0 173 l 5
 122 173 l 5
 122 51 l 5
122 552 m 1
 0 552 l 1
 0 675 l 1
 122 675 l 1
 122 552 l 1
122 678 m 1
 0 678 l 1
 0 800 l 1
 122 800 l 1
 122 678 l 1
EndSplineSet
Validated: 1
EndChar

StartChar: dollar
Encoding: 36 36 37
Width: 123
Flags: HW
LayerCount: 2
Fore
SplineSet
122 51 m 5
 0 51 l 5
 0 173 l 5
 122 173 l 5
 122 51 l 5
122 427 m 1
 0 427 l 1
 0 549 l 1
 122 549 l 1
 122 427 l 1
EndSplineSet
Validated: 1
EndChar

StartChar: percent
Encoding: 37 37 38
Width: 123
Flags: HW
LayerCount: 2
Fore
SplineSet
122 51 m 5
 0 51 l 5
 0 173 l 5
 122 173 l 5
 122 51 l 5
122 427 m 1
 0 427 l 1
 0 549 l 1
 122 549 l 1
 122 427 l 1
122 678 m 1
 0 678 l 1
 0 800 l 1
 122 800 l 1
 122 678 l 1
EndSplineSet
Validated: 1
EndChar

StartChar: ampersand
Encoding: 38 38 39
Width: 123
Flags: HW
LayerCount: 2
Fore
SplineSet
122 51 m 5
 0 51 l 5
 0 173 l 5
 122 173 l 5
 122 51 l 5
122 427 m 1
 0 427 l 1
 0 549 l 1
 122 549 l 1
 122 427 l 1
122 552 m 1
 0 552 l 1
 0 675 l 1
 122 675 l 1
 122 552 l 1
EndSplineSet
Validated: 1
EndChar

StartChar: quotesingle
Encoding: 39 39 40
Width: 123
Flags: HW
LayerCount: 2
Fore
SplineSet
122 51 m 5
 0 51 l 5
 0 173 l 5
 122 173 l 5
 122 51 l 5
122 427 m 1
 0 427 l 1
 0 549 l 1
 122 549 l 1
 122 427 l 1
122 552 m 1
 0 552 l 1
 0 675 l 1
 122 675 l 1
 122 552 l 1
122 678 m 1
 0 678 l 1
 0 800 l 1
 122 800 l 1
 122 678 l 1
EndSplineSet
Validated: 1
EndChar

StartChar: parenleft
Encoding: 40 40 41
Width: 123
Flags: HW
LayerCount: 2
Fore
SplineSet
122 51 m 5
 0 51 l 5
 0 173 l 5
 122 173 l 5
 122 51 l 5
122 302 m 1
 0 302 l 1
 0 424 l 1
 122 424 l 1
 122 302 l 1
EndSplineSet
Validated: 1
EndChar

StartChar: parenright
Encoding: 41 41 42
Width: 123
Flags: HW
LayerCount: 2
Fore
SplineSet
122 51 m 5
 0 51 l 5
 0 173 l 5
 122 173 l 5
 122 51 l 5
122 302 m 1
 0 302 l 1
 0 424 l 1
 122 424 l 1
 122 302 l 1
122 678 m 1
 0 678 l 1
 0 800 l 1
 122 800 l 1
 122 678 l 1
EndSplineSet
Validated: 1
EndChar

StartChar: asterisk
Encoding: 42 42 43
Width: 123
Flags: HW
LayerCount: 2
Fore
SplineSet
122 51 m 5
 0 51 l 5
 0 173 l 5
 122 173 l 5
 122 51 l 5
122 302 m 1
 0 302 l 1
 0 424 l 1
 122 424 l 1
 122 302 l 1
122 552 m 1
 0 552 l 1
 0 675 l 1
 122 675 l 1
 122 552 l 1
EndSplineSet
Validated: 1
EndChar

StartChar: plus
Encoding: 43 43 44
Width: 123
Flags: HW
LayerCount: 2
Fore
SplineSet
122 51 m 5
 0 51 l 5
 0 173 l 5
 122 173 l 5
 122 51 l 5
122 302 m 1
 0 302 l 1
 0 424 l 1
 122 424 l 1
 122 302 l 1
122 552 m 1
 0 552 l 1
 0 675 l 1
 122 675 l 1
 122 552 l 1
122 678 m 1
 0 678 l 1
 0 800 l 1
 122 800 l 1
 122 678 l 1
EndSplineSet
Validated: 1
EndChar

StartChar: comma
Encoding: 44 44 45
Width: 123
Flags: HW
LayerCount: 2
Fore
SplineSet
122 51 m 5
 0 51 l 5
 0 173 l 5
 122 173 l 5
 122 51 l 5
122 302 m 1
 0 302 l 1
 0 424 l 1
 122 424 l 1
 122 302 l 1
122 427 m 1
 0 427 l 1
 0 549 l 1
 122 549 l 1
 122 427 l 1
EndSplineSet
Validated: 1
EndChar

StartChar: hyphen
Encoding: 45 45 46
Width: 123
Flags: HW
LayerCount: 2
Fore
SplineSet
122 51 m 5
 0 51 l 5
 0 173 l 5
 122 173 l 5
 122 51 l 5
122 302 m 1
 0 302 l 1
 0 424 l 1
 122 424 l 1
 122 302 l 1
122 427 m 1
 0 427 l 1
 0 549 l 1
 122 549 l 1
 122 427 l 1
122 678 m 1
 0 678 l 1
 0 800 l 1
 122 800 l 1
 122 678 l 1
EndSplineSet
Validated: 1
EndChar

StartChar: period
Encoding: 46 46 47
Width: 123
Flags: HW
LayerCount: 2
Fore
SplineSet
122 51 m 5
 0 51 l 5
 0 173 l 5
 122 173 l 5
 122 51 l 5
122 302 m 1
 0 302 l 1
 0 424 l 1
 122 424 l 1
 122 302 l 1
122 427 m 1
 0 427 l 1
 0 549 l 1
 122 549 l 1
 122 427 l 1
122 552 m 1
 0 552 l 1
 0 675 l 1
 122 675 l 1
 122 552 l 1
EndSplineSet
Validated: 1
EndChar

StartChar: zero
Encoding: 48 48 48
Width: 123
Flags: HW
LayerCount: 2
Fore
SplineSet
122 51 m 5
 0 51 l 5
 0 173 l 5
 122 173 l 5
 122 51 l 5
122 176 m 1
 0 176 l 1
 0 298 l 1
 122 298 l 1
 122 176 l 1
EndSplineSet
Validated: 1
EndChar

StartChar: slash
Encoding: 47 47 49
Width: 123
Flags: HW
LayerCount: 2
Fore
SplineSet
122 51 m 5
 0 51 l 5
 0 173 l 5
 122 173 l 5
 122 51 l 5
122 302 m 1
 0 302 l 1
 0 424 l 1
 122 424 l 1
 122 302 l 1
122 427 m 1
 0 427 l 1
 0 549 l 1
 122 549 l 1
 122 427 l 1
122 552 m 1
 0 552 l 1
 0 675 l 1
 122 675 l 1
 122 552 l 1
122 678 m 1
 0 678 l 1
 0 800 l 1
 122 800 l 1
 122 678 l 1
EndSplineSet
Validated: 1
EndChar

StartChar: one
Encoding: 49 49 50
Width: 123
Flags: HW
LayerCount: 2
Fore
SplineSet
122 51 m 5
 0 51 l 5
 0 173 l 5
 122 173 l 5
 122 51 l 5
122 176 m 1
 0 176 l 1
 0 298 l 1
 122 298 l 1
 122 176 l 1
122 678 m 1
 0 678 l 1
 0 800 l 1
 122 800 l 1
 122 678 l 1
EndSplineSet
Validated: 1
EndChar

StartChar: two
Encoding: 50 50 51
Width: 123
Flags: HW
LayerCount: 2
Fore
SplineSet
122 51 m 5
 0 51 l 5
 0 173 l 5
 122 173 l 5
 122 51 l 5
122 176 m 1
 0 176 l 1
 0 298 l 1
 122 298 l 1
 122 176 l 1
122 552 m 1
 0 552 l 1
 0 675 l 1
 122 675 l 1
 122 552 l 1
EndSplineSet
Validated: 1
EndChar

StartChar: three
Encoding: 51 51 52
Width: 123
Flags: HW
LayerCount: 2
Fore
SplineSet
122 51 m 5
 0 51 l 5
 0 173 l 5
 122 173 l 5
 122 51 l 5
122 176 m 1
 0 176 l 1
 0 298 l 1
 122 298 l 1
 122 176 l 1
122 552 m 1
 0 552 l 1
 0 675 l 1
 122 675 l 1
 122 552 l 1
122 678 m 1
 0 678 l 1
 0 800 l 1
 122 800 l 1
 122 678 l 1
EndSplineSet
Validated: 1
EndChar

StartChar: five
Encoding: 53 53 53
Width: 123
Flags: HW
LayerCount: 2
Fore
SplineSet
122 51 m 5
 0 51 l 5
 0 173 l 5
 122 173 l 5
 122 51 l 5
122 176 m 1
 0 176 l 1
 0 298 l 1
 122 298 l 1
 122 176 l 1
122 427 m 1
 0 427 l 1
 0 549 l 1
 122 549 l 1
 122 427 l 1
122 678 m 1
 0 678 l 1
 0 800 l 1
 122 800 l 1
 122 678 l 1
EndSplineSet
Validated: 1
EndChar

StartChar: four
Encoding: 52 52 54
Width: 123
Flags: HW
LayerCount: 2
Fore
SplineSet
122 51 m 5
 0 51 l 5
 0 173 l 5
 122 173 l 5
 122 51 l 5
122 176 m 1
 0 176 l 1
 0 298 l 1
 122 298 l 1
 122 176 l 1
122 427 m 1
 0 427 l 1
 0 549 l 1
 122 549 l 1
 122 427 l 1
EndSplineSet
Validated: 1
EndChar

StartChar: P
Encoding: 80 80 55
Width: 123
Flags: HW
LayerCount: 2
Fore
SplineSet
122 -75 m 5
 0 -75 l 5
 0 48 l 5
 122 48 l 5
 122 -75 l 5
122 176 m 1
 0 176 l 1
 0 298 l 1
 122 298 l 1
 122 176 l 1
EndSplineSet
Validated: 1
EndChar

StartChar: six
Encoding: 54 54 56
Width: 123
Flags: HW
LayerCount: 2
Fore
SplineSet
122 51 m 5
 0 51 l 5
 0 173 l 5
 122 173 l 5
 122 51 l 5
122 176 m 1
 0 176 l 1
 0 298 l 1
 122 298 l 1
 122 176 l 1
122 427 m 1
 0 427 l 1
 0 549 l 1
 122 549 l 1
 122 427 l 1
122 552 m 1
 0 552 l 1
 0 675 l 1
 122 675 l 1
 122 552 l 1
EndSplineSet
Validated: 1
EndChar

StartChar: seven
Encoding: 55 55 57
Width: 123
Flags: HW
LayerCount: 2
Fore
SplineSet
122 51 m 5
 0 51 l 5
 0 173 l 5
 122 173 l 5
 122 51 l 5
122 176 m 1
 0 176 l 1
 0 298 l 1
 122 298 l 1
 122 176 l 1
122 427 m 1
 0 427 l 1
 0 549 l 1
 122 549 l 1
 122 427 l 1
122 552 m 1
 0 552 l 1
 0 675 l 1
 122 675 l 1
 122 552 l 1
122 678 m 1
 0 678 l 1
 0 800 l 1
 122 800 l 1
 122 678 l 1
EndSplineSet
Validated: 1
EndChar

StartChar: eight
Encoding: 56 56 58
Width: 123
Flags: HW
LayerCount: 2
Fore
SplineSet
122 51 m 5
 0 51 l 5
 0 173 l 5
 122 173 l 5
 122 51 l 5
122 176 m 1
 0 176 l 1
 0 298 l 1
 122 298 l 1
 122 176 l 1
122 302 m 1
 0 302 l 1
 0 424 l 1
 122 424 l 1
 122 302 l 1
EndSplineSet
Validated: 1
EndChar

StartChar: nine
Encoding: 57 57 59
Width: 123
Flags: HW
LayerCount: 2
Fore
SplineSet
122 51 m 5
 0 51 l 5
 0 173 l 5
 122 173 l 5
 122 51 l 5
122 176 m 1
 0 176 l 1
 0 298 l 1
 122 298 l 1
 122 176 l 1
122 302 m 1
 0 302 l 1
 0 424 l 1
 122 424 l 1
 122 302 l 1
122 678 m 1
 0 678 l 1
 0 800 l 1
 122 800 l 1
 122 678 l 1
EndSplineSet
Validated: 1
EndChar

StartChar: colon
Encoding: 58 58 60
Width: 123
Flags: HW
LayerCount: 2
Fore
SplineSet
122 51 m 5
 0 51 l 5
 0 173 l 5
 122 173 l 5
 122 51 l 5
122 176 m 1
 0 176 l 1
 0 298 l 1
 122 298 l 1
 122 176 l 1
122 302 m 1
 0 302 l 1
 0 424 l 1
 122 424 l 1
 122 302 l 1
122 552 m 1
 0 552 l 1
 0 675 l 1
 122 675 l 1
 122 552 l 1
EndSplineSet
Validated: 1
EndChar

StartChar: semicolon
Encoding: 59 59 61
Width: 123
Flags: HW
LayerCount: 2
Fore
SplineSet
122 51 m 5
 0 51 l 5
 0 173 l 5
 122 173 l 5
 122 51 l 5
122 176 m 1
 0 176 l 1
 0 298 l 1
 122 298 l 1
 122 176 l 1
122 302 m 1
 0 302 l 1
 0 424 l 1
 122 424 l 1
 122 302 l 1
122 552 m 1
 0 552 l 1
 0 675 l 1
 122 675 l 1
 122 552 l 1
122 678 m 1
 0 678 l 1
 0 800 l 1
 122 800 l 1
 122 678 l 1
EndSplineSet
Validated: 1
EndChar

StartChar: less
Encoding: 60 60 62
Width: 123
Flags: HW
LayerCount: 2
Fore
SplineSet
122 51 m 5
 0 51 l 5
 0 173 l 5
 122 173 l 5
 122 51 l 5
122 176 m 1
 0 176 l 1
 0 298 l 1
 122 298 l 1
 122 176 l 1
122 302 m 1
 0 302 l 1
 0 424 l 1
 122 424 l 1
 122 302 l 1
122 427 m 1
 0 427 l 1
 0 549 l 1
 122 549 l 1
 122 427 l 1
EndSplineSet
Validated: 1
EndChar

StartChar: equal
Encoding: 61 61 63
Width: 123
Flags: HW
LayerCount: 2
Fore
SplineSet
122 51 m 5
 0 51 l 5
 0 173 l 5
 122 173 l 5
 122 51 l 5
122 176 m 1
 0 176 l 1
 0 298 l 1
 122 298 l 1
 122 176 l 1
122 302 m 1
 0 302 l 1
 0 424 l 1
 122 424 l 1
 122 302 l 1
122 427 m 1
 0 427 l 1
 0 549 l 1
 122 549 l 1
 122 427 l 1
122 678 m 1
 0 678 l 1
 0 800 l 1
 122 800 l 1
 122 678 l 1
EndSplineSet
Validated: 1
EndChar

StartChar: greater
Encoding: 62 62 64
Width: 123
Flags: HW
LayerCount: 2
Fore
SplineSet
122 51 m 5
 0 51 l 5
 0 173 l 5
 122 173 l 5
 122 51 l 5
122 176 m 1
 0 176 l 1
 0 298 l 1
 122 298 l 1
 122 176 l 1
122 302 m 1
 0 302 l 1
 0 424 l 1
 122 424 l 1
 122 302 l 1
122 427 m 1
 0 427 l 1
 0 549 l 1
 122 549 l 1
 122 427 l 1
122 552 m 1
 0 552 l 1
 0 675 l 1
 122 675 l 1
 122 552 l 1
EndSplineSet
Validated: 1
EndChar

StartChar: question
Encoding: 63 63 65
Width: 123
Flags: HW
LayerCount: 2
Fore
SplineSet
122 51 m 5
 0 51 l 5
 0 173 l 5
 122 173 l 5
 122 51 l 5
122 176 m 1
 0 176 l 1
 0 298 l 1
 122 298 l 1
 122 176 l 1
122 302 m 1
 0 302 l 1
 0 424 l 1
 122 424 l 1
 122 302 l 1
122 427 m 1
 0 427 l 1
 0 549 l 1
 122 549 l 1
 122 427 l 1
122 552 m 1
 0 552 l 1
 0 675 l 1
 122 675 l 1
 122 552 l 1
122 678 m 1
 0 678 l 1
 0 800 l 1
 122 800 l 1
 122 678 l 1
EndSplineSet
Validated: 1
EndChar

StartChar: at
Encoding: 64 64 66
Width: 123
Flags: HW
LayerCount: 2
Fore
SplineSet
122 -75 m 5
 0 -75 l 5
 0 48 l 5
 122 48 l 5
 122 -75 l 5
EndSplineSet
Validated: 1
EndChar

StartChar: A
Encoding: 65 65 67
Width: 123
Flags: HW
LayerCount: 2
Fore
SplineSet
122 -75 m 5
 0 -75 l 5
 0 48 l 5
 122 48 l 5
 122 -75 l 5
122 678 m 1
 0 678 l 1
 0 800 l 1
 122 800 l 1
 122 678 l 1
EndSplineSet
Validated: 1
EndChar

StartChar: B
Encoding: 66 66 68
Width: 123
Flags: HW
LayerCount: 2
Fore
SplineSet
122 -75 m 5
 0 -75 l 5
 0 48 l 5
 122 48 l 5
 122 -75 l 5
122 552 m 1
 0 552 l 1
 0 675 l 1
 122 675 l 1
 122 552 l 1
EndSplineSet
Validated: 1
EndChar

StartChar: C
Encoding: 67 67 69
Width: 123
Flags: HW
LayerCount: 2
Fore
SplineSet
122 -75 m 5
 0 -75 l 5
 0 48 l 5
 122 48 l 5
 122 -75 l 5
122 552 m 1
 0 552 l 1
 0 675 l 1
 122 675 l 1
 122 552 l 1
122 678 m 1
 0 678 l 1
 0 800 l 1
 122 800 l 1
 122 678 l 1
EndSplineSet
Validated: 1
EndChar

StartChar: D
Encoding: 68 68 70
Width: 123
Flags: HW
LayerCount: 2
Fore
SplineSet
122 -75 m 5
 0 -75 l 5
 0 48 l 5
 122 48 l 5
 122 -75 l 5
122 427 m 1
 0 427 l 1
 0 549 l 1
 122 549 l 1
 122 427 l 1
EndSplineSet
Validated: 1
EndChar

StartChar: E
Encoding: 69 69 71
Width: 123
Flags: HW
LayerCount: 2
Fore
SplineSet
122 -75 m 5
 0 -75 l 5
 0 48 l 5
 122 48 l 5
 122 -75 l 5
122 427 m 1
 0 427 l 1
 0 549 l 1
 122 549 l 1
 122 427 l 1
122 678 m 1
 0 678 l 1
 0 800 l 1
 122 800 l 1
 122 678 l 1
EndSplineSet
Validated: 1
EndChar

StartChar: F
Encoding: 70 70 72
Width: 123
Flags: HW
LayerCount: 2
Fore
SplineSet
122 -75 m 5
 0 -75 l 5
 0 48 l 5
 122 48 l 5
 122 -75 l 5
122 427 m 1
 0 427 l 1
 0 549 l 1
 122 549 l 1
 122 427 l 1
122 552 m 1
 0 552 l 1
 0 675 l 1
 122 675 l 1
 122 552 l 1
EndSplineSet
Validated: 1
EndChar

StartChar: G
Encoding: 71 71 73
Width: 123
Flags: HW
LayerCount: 2
Fore
SplineSet
122 -75 m 5
 0 -75 l 5
 0 48 l 5
 122 48 l 5
 122 -75 l 5
122 427 m 1
 0 427 l 1
 0 549 l 1
 122 549 l 1
 122 427 l 1
122 552 m 1
 0 552 l 1
 0 675 l 1
 122 675 l 1
 122 552 l 1
122 678 m 1
 0 678 l 1
 0 800 l 1
 122 800 l 1
 122 678 l 1
EndSplineSet
Validated: 1
EndChar

StartChar: H
Encoding: 72 72 74
Width: 123
Flags: HW
LayerCount: 2
Fore
SplineSet
122 -75 m 5
 0 -75 l 5
 0 48 l 5
 122 48 l 5
 122 -75 l 5
122 302 m 1
 0 302 l 1
 0 424 l 1
 122 424 l 1
 122 302 l 1
EndSplineSet
Validated: 1
EndChar

StartChar: I
Encoding: 73 73 75
Width: 123
Flags: HW
LayerCount: 2
Fore
SplineSet
122 -75 m 5
 0 -75 l 5
 0 48 l 5
 122 48 l 5
 122 -75 l 5
122 302 m 1
 0 302 l 1
 0 424 l 1
 122 424 l 1
 122 302 l 1
122 678 m 1
 0 678 l 1
 0 800 l 1
 122 800 l 1
 122 678 l 1
EndSplineSet
Validated: 1
EndChar

StartChar: J
Encoding: 74 74 76
Width: 123
Flags: HW
LayerCount: 2
Fore
SplineSet
122 -75 m 5
 0 -75 l 5
 0 48 l 5
 122 48 l 5
 122 -75 l 5
122 302 m 1
 0 302 l 1
 0 424 l 1
 122 424 l 1
 122 302 l 1
122 552 m 1
 0 552 l 1
 0 675 l 1
 122 675 l 1
 122 552 l 1
EndSplineSet
Validated: 1
EndChar

StartChar: K
Encoding: 75 75 77
Width: 123
Flags: HW
LayerCount: 2
Fore
SplineSet
122 -75 m 5
 0 -75 l 5
 0 48 l 5
 122 48 l 5
 122 -75 l 5
122 302 m 1
 0 302 l 1
 0 424 l 1
 122 424 l 1
 122 302 l 1
122 552 m 1
 0 552 l 1
 0 675 l 1
 122 675 l 1
 122 552 l 1
122 678 m 1
 0 678 l 1
 0 800 l 1
 122 800 l 1
 122 678 l 1
EndSplineSet
Validated: 1
EndChar

StartChar: L
Encoding: 76 76 78
Width: 123
Flags: HW
LayerCount: 2
Fore
SplineSet
122 -75 m 5
 0 -75 l 5
 0 48 l 5
 122 48 l 5
 122 -75 l 5
122 302 m 1
 0 302 l 1
 0 424 l 1
 122 424 l 1
 122 302 l 1
122 427 m 1
 0 427 l 1
 0 549 l 1
 122 549 l 1
 122 427 l 1
EndSplineSet
Validated: 1
EndChar

StartChar: M
Encoding: 77 77 79
Width: 123
Flags: HW
LayerCount: 2
Fore
SplineSet
122 -75 m 5
 0 -75 l 5
 0 48 l 5
 122 48 l 5
 122 -75 l 5
122 302 m 1
 0 302 l 1
 0 424 l 1
 122 424 l 1
 122 302 l 1
122 427 m 1
 0 427 l 1
 0 549 l 1
 122 549 l 1
 122 427 l 1
122 678 m 1
 0 678 l 1
 0 800 l 1
 122 800 l 1
 122 678 l 1
EndSplineSet
Validated: 1
EndChar

StartChar: N
Encoding: 78 78 80
Width: 123
Flags: HW
LayerCount: 2
Fore
SplineSet
122 -75 m 5
 0 -75 l 5
 0 48 l 5
 122 48 l 5
 122 -75 l 5
122 302 m 1
 0 302 l 1
 0 424 l 1
 122 424 l 1
 122 302 l 1
122 427 m 1
 0 427 l 1
 0 549 l 1
 122 549 l 1
 122 427 l 1
122 552 m 1
 0 552 l 1
 0 675 l 1
 122 675 l 1
 122 552 l 1
EndSplineSet
Validated: 1
EndChar

StartChar: O
Encoding: 79 79 81
Width: 123
Flags: HW
LayerCount: 2
Fore
SplineSet
122 -75 m 5
 0 -75 l 5
 0 48 l 5
 122 48 l 5
 122 -75 l 5
122 302 m 1
 0 302 l 1
 0 424 l 1
 122 424 l 1
 122 302 l 1
122 427 m 1
 0 427 l 1
 0 549 l 1
 122 549 l 1
 122 427 l 1
122 552 m 1
 0 552 l 1
 0 675 l 1
 122 675 l 1
 122 552 l 1
122 678 m 1
 0 678 l 1
 0 800 l 1
 122 800 l 1
 122 678 l 1
EndSplineSet
Validated: 1
EndChar

StartChar: k
Encoding: 107 107 82
Width: 123
Flags: HW
LayerCount: 2
Fore
SplineSet
122 -75 m 5
 0 -75 l 5
 0 48 l 5
 122 48 l 5
 122 -75 l 5
122 51 m 1
 0 51 l 1
 0 173 l 1
 122 173 l 1
 122 51 l 1
122 302 m 1
 0 302 l 1
 0 424 l 1
 122 424 l 1
 122 302 l 1
122 552 m 1
 0 552 l 1
 0 675 l 1
 122 675 l 1
 122 552 l 1
122 678 m 1
 0 678 l 1
 0 800 l 1
 122 800 l 1
 122 678 l 1
EndSplineSet
Validated: 1
EndChar

StartChar: j
Encoding: 106 106 83
Width: 123
Flags: HW
LayerCount: 2
Fore
SplineSet
122 -75 m 5
 0 -75 l 5
 0 48 l 5
 122 48 l 5
 122 -75 l 5
122 51 m 1
 0 51 l 1
 0 173 l 1
 122 173 l 1
 122 51 l 1
122 302 m 1
 0 302 l 1
 0 424 l 1
 122 424 l 1
 122 302 l 1
122 552 m 1
 0 552 l 1
 0 675 l 1
 122 675 l 1
 122 552 l 1
EndSplineSet
Validated: 1
EndChar

StartChar: i
Encoding: 105 105 84
Width: 123
Flags: HW
LayerCount: 2
Fore
SplineSet
122 -75 m 5
 0 -75 l 5
 0 48 l 5
 122 48 l 5
 122 -75 l 5
122 51 m 1
 0 51 l 1
 0 173 l 1
 122 173 l 1
 122 51 l 1
122 302 m 1
 0 302 l 1
 0 424 l 1
 122 424 l 1
 122 302 l 1
122 678 m 1
 0 678 l 1
 0 800 l 1
 122 800 l 1
 122 678 l 1
EndSplineSet
Validated: 1
EndChar

StartChar: h
Encoding: 104 104 85
Width: 123
Flags: HW
LayerCount: 2
Fore
SplineSet
122 -75 m 5
 0 -75 l 5
 0 48 l 5
 122 48 l 5
 122 -75 l 5
122 51 m 1
 0 51 l 1
 0 173 l 1
 122 173 l 1
 122 51 l 1
122 302 m 1
 0 302 l 1
 0 424 l 1
 122 424 l 1
 122 302 l 1
EndSplineSet
Validated: 1
EndChar

StartChar: g
Encoding: 103 103 86
Width: 123
Flags: HW
LayerCount: 2
Fore
SplineSet
122 -75 m 5
 0 -75 l 5
 0 48 l 5
 122 48 l 5
 122 -75 l 5
122 51 m 1
 0 51 l 1
 0 173 l 1
 122 173 l 1
 122 51 l 1
122 427 m 1
 0 427 l 1
 0 549 l 1
 122 549 l 1
 122 427 l 1
122 552 m 1
 0 552 l 1
 0 675 l 1
 122 675 l 1
 122 552 l 1
122 678 m 1
 0 678 l 1
 0 800 l 1
 122 800 l 1
 122 678 l 1
EndSplineSet
Validated: 1
EndChar

StartChar: e
Encoding: 101 101 87
Width: 123
Flags: HW
LayerCount: 2
Fore
SplineSet
122 -75 m 5
 0 -75 l 5
 0 48 l 5
 122 48 l 5
 122 -75 l 5
122 51 m 1
 0 51 l 1
 0 173 l 1
 122 173 l 1
 122 51 l 1
122 427 m 1
 0 427 l 1
 0 549 l 1
 122 549 l 1
 122 427 l 1
122 678 m 1
 0 678 l 1
 0 800 l 1
 122 800 l 1
 122 678 l 1
EndSplineSet
Validated: 1
EndChar

StartChar: f
Encoding: 102 102 88
Width: 123
Flags: HW
LayerCount: 2
Fore
SplineSet
122 -75 m 5
 0 -75 l 5
 0 48 l 5
 122 48 l 5
 122 -75 l 5
122 51 m 1
 0 51 l 1
 0 173 l 1
 122 173 l 1
 122 51 l 1
122 427 m 1
 0 427 l 1
 0 549 l 1
 122 549 l 1
 122 427 l 1
122 552 m 1
 0 552 l 1
 0 675 l 1
 122 675 l 1
 122 552 l 1
EndSplineSet
Validated: 1
EndChar

StartChar: d
Encoding: 100 100 89
Width: 123
Flags: HW
LayerCount: 2
Fore
SplineSet
122 -75 m 5
 0 -75 l 5
 0 48 l 5
 122 48 l 5
 122 -75 l 5
122 51 m 1
 0 51 l 1
 0 173 l 1
 122 173 l 1
 122 51 l 1
122 427 m 1
 0 427 l 1
 0 549 l 1
 122 549 l 1
 122 427 l 1
EndSplineSet
Validated: 1
EndChar

StartChar: c
Encoding: 99 99 90
Width: 123
Flags: HW
LayerCount: 2
Fore
SplineSet
122 -75 m 5
 0 -75 l 5
 0 48 l 5
 122 48 l 5
 122 -75 l 5
122 51 m 1
 0 51 l 1
 0 173 l 1
 122 173 l 1
 122 51 l 1
122 552 m 1
 0 552 l 1
 0 675 l 1
 122 675 l 1
 122 552 l 1
122 678 m 1
 0 678 l 1
 0 800 l 1
 122 800 l 1
 122 678 l 1
EndSplineSet
Validated: 1
EndChar

StartChar: b
Encoding: 98 98 91
Width: 123
Flags: HW
LayerCount: 2
Fore
SplineSet
122 -75 m 5
 0 -75 l 5
 0 48 l 5
 122 48 l 5
 122 -75 l 5
122 51 m 1
 0 51 l 1
 0 173 l 1
 122 173 l 1
 122 51 l 1
122 552 m 1
 0 552 l 1
 0 675 l 1
 122 675 l 1
 122 552 l 1
EndSplineSet
Validated: 1
EndChar

StartChar: a
Encoding: 97 97 92
Width: 123
Flags: HW
LayerCount: 2
Fore
SplineSet
122 -75 m 5
 0 -75 l 5
 0 48 l 5
 122 48 l 5
 122 -75 l 5
122 51 m 1
 0 51 l 1
 0 173 l 1
 122 173 l 1
 122 51 l 1
122 678 m 1
 0 678 l 1
 0 800 l 1
 122 800 l 1
 122 678 l 1
EndSplineSet
Validated: 1
EndChar

StartChar: grave
Encoding: 96 96 93
Width: 123
Flags: HW
LayerCount: 2
Fore
SplineSet
122 -75 m 5
 0 -75 l 5
 0 48 l 5
 122 48 l 5
 122 -75 l 5
122 51 m 1
 0 51 l 1
 0 173 l 1
 122 173 l 1
 122 51 l 1
EndSplineSet
Validated: 1
EndChar

StartChar: underscore
Encoding: 95 95 94
Width: 123
Flags: HW
LayerCount: 2
Fore
SplineSet
122 -75 m 5
 0 -75 l 5
 0 48 l 5
 122 48 l 5
 122 -75 l 5
122 176 m 1
 0 176 l 1
 0 298 l 1
 122 298 l 1
 122 176 l 1
122 302 m 1
 0 302 l 1
 0 424 l 1
 122 424 l 1
 122 302 l 1
122 427 m 1
 0 427 l 1
 0 549 l 1
 122 549 l 1
 122 427 l 1
122 552 m 1
 0 552 l 1
 0 675 l 1
 122 675 l 1
 122 552 l 1
122 678 m 1
 0 678 l 1
 0 800 l 1
 122 800 l 1
 122 678 l 1
EndSplineSet
Validated: 1
EndChar

StartChar: asciicircum
Encoding: 94 94 95
Width: 123
Flags: HW
LayerCount: 2
Fore
SplineSet
122 -75 m 5
 0 -75 l 5
 0 48 l 5
 122 48 l 5
 122 -75 l 5
122 176 m 1
 0 176 l 1
 0 298 l 1
 122 298 l 1
 122 176 l 1
122 302 m 1
 0 302 l 1
 0 424 l 1
 122 424 l 1
 122 302 l 1
122 427 m 1
 0 427 l 1
 0 549 l 1
 122 549 l 1
 122 427 l 1
122 552 m 1
 0 552 l 1
 0 675 l 1
 122 675 l 1
 122 552 l 1
EndSplineSet
Validated: 1
EndChar

StartChar: bracketright
Encoding: 93 93 96
Width: 123
Flags: HW
LayerCount: 2
Fore
SplineSet
122 -75 m 5
 0 -75 l 5
 0 48 l 5
 122 48 l 5
 122 -75 l 5
122 176 m 1
 0 176 l 1
 0 298 l 1
 122 298 l 1
 122 176 l 1
122 302 m 1
 0 302 l 1
 0 424 l 1
 122 424 l 1
 122 302 l 1
122 427 m 1
 0 427 l 1
 0 549 l 1
 122 549 l 1
 122 427 l 1
122 678 m 1
 0 678 l 1
 0 800 l 1
 122 800 l 1
 122 678 l 1
EndSplineSet
Validated: 1
EndChar

StartChar: backslash
Encoding: 92 92 97
Width: 123
Flags: HW
LayerCount: 2
Fore
SplineSet
122 -75 m 5
 0 -75 l 5
 0 48 l 5
 122 48 l 5
 122 -75 l 5
122 176 m 1
 0 176 l 1
 0 298 l 1
 122 298 l 1
 122 176 l 1
122 302 m 1
 0 302 l 1
 0 424 l 1
 122 424 l 1
 122 302 l 1
122 427 m 1
 0 427 l 1
 0 549 l 1
 122 549 l 1
 122 427 l 1
EndSplineSet
Validated: 1
EndChar

StartChar: bracketleft
Encoding: 91 91 98
Width: 123
Flags: HW
LayerCount: 2
Fore
SplineSet
122 -75 m 5
 0 -75 l 5
 0 48 l 5
 122 48 l 5
 122 -75 l 5
122 176 m 1
 0 176 l 1
 0 298 l 1
 122 298 l 1
 122 176 l 1
122 302 m 1
 0 302 l 1
 0 424 l 1
 122 424 l 1
 122 302 l 1
122 552 m 1
 0 552 l 1
 0 675 l 1
 122 675 l 1
 122 552 l 1
122 678 m 1
 0 678 l 1
 0 800 l 1
 122 800 l 1
 122 678 l 1
EndSplineSet
Validated: 1
EndChar

StartChar: Z
Encoding: 90 90 99
Width: 123
Flags: HW
LayerCount: 2
Fore
SplineSet
122 -75 m 5
 0 -75 l 5
 0 48 l 5
 122 48 l 5
 122 -75 l 5
122 176 m 1
 0 176 l 1
 0 298 l 1
 122 298 l 1
 122 176 l 1
122 302 m 1
 0 302 l 1
 0 424 l 1
 122 424 l 1
 122 302 l 1
122 552 m 1
 0 552 l 1
 0 675 l 1
 122 675 l 1
 122 552 l 1
EndSplineSet
Validated: 1
EndChar

StartChar: Y
Encoding: 89 89 100
Width: 123
Flags: HW
LayerCount: 2
Fore
SplineSet
122 -75 m 5
 0 -75 l 5
 0 48 l 5
 122 48 l 5
 122 -75 l 5
122 176 m 1
 0 176 l 1
 0 298 l 1
 122 298 l 1
 122 176 l 1
122 302 m 1
 0 302 l 1
 0 424 l 1
 122 424 l 1
 122 302 l 1
122 678 m 1
 0 678 l 1
 0 800 l 1
 122 800 l 1
 122 678 l 1
EndSplineSet
Validated: 1
EndChar

StartChar: X
Encoding: 88 88 101
Width: 123
Flags: HW
LayerCount: 2
Fore
SplineSet
122 -75 m 5
 0 -75 l 5
 0 48 l 5
 122 48 l 5
 122 -75 l 5
122 176 m 1
 0 176 l 1
 0 298 l 1
 122 298 l 1
 122 176 l 1
122 302 m 1
 0 302 l 1
 0 424 l 1
 122 424 l 1
 122 302 l 1
EndSplineSet
Validated: 1
EndChar

StartChar: V
Encoding: 86 86 102
Width: 123
Flags: HW
LayerCount: 2
Fore
SplineSet
122 -75 m 5
 0 -75 l 5
 0 48 l 5
 122 48 l 5
 122 -75 l 5
122 176 m 1
 0 176 l 1
 0 298 l 1
 122 298 l 1
 122 176 l 1
122 427 m 1
 0 427 l 1
 0 549 l 1
 122 549 l 1
 122 427 l 1
122 552 m 1
 0 552 l 1
 0 675 l 1
 122 675 l 1
 122 552 l 1
EndSplineSet
Validated: 1
EndChar

StartChar: W
Encoding: 87 87 103
Width: 123
Flags: HW
LayerCount: 2
Fore
SplineSet
122 -75 m 5
 0 -75 l 5
 0 48 l 5
 122 48 l 5
 122 -75 l 5
122 176 m 1
 0 176 l 1
 0 298 l 1
 122 298 l 1
 122 176 l 1
122 427 m 1
 0 427 l 1
 0 549 l 1
 122 549 l 1
 122 427 l 1
122 552 m 1
 0 552 l 1
 0 675 l 1
 122 675 l 1
 122 552 l 1
122 678 m 1
 0 678 l 1
 0 800 l 1
 122 800 l 1
 122 678 l 1
EndSplineSet
Validated: 1
EndChar

StartChar: U
Encoding: 85 85 104
Width: 123
Flags: HW
LayerCount: 2
Fore
SplineSet
122 -75 m 5
 0 -75 l 5
 0 48 l 5
 122 48 l 5
 122 -75 l 5
122 176 m 1
 0 176 l 1
 0 298 l 1
 122 298 l 1
 122 176 l 1
122 427 m 1
 0 427 l 1
 0 549 l 1
 122 549 l 1
 122 427 l 1
122 678 m 1
 0 678 l 1
 0 800 l 1
 122 800 l 1
 122 678 l 1
EndSplineSet
Validated: 1
EndChar

StartChar: T
Encoding: 84 84 105
Width: 123
Flags: HW
LayerCount: 2
Fore
SplineSet
122 -75 m 5
 0 -75 l 5
 0 48 l 5
 122 48 l 5
 122 -75 l 5
122 176 m 1
 0 176 l 1
 0 298 l 1
 122 298 l 1
 122 176 l 1
122 427 m 1
 0 427 l 1
 0 549 l 1
 122 549 l 1
 122 427 l 1
EndSplineSet
Validated: 1
EndChar

StartChar: S
Encoding: 83 83 106
Width: 123
Flags: HW
LayerCount: 2
Fore
SplineSet
122 -75 m 5
 0 -75 l 5
 0 48 l 5
 122 48 l 5
 122 -75 l 5
122 176 m 1
 0 176 l 1
 0 298 l 1
 122 298 l 1
 122 176 l 1
122 552 m 1
 0 552 l 1
 0 675 l 1
 122 675 l 1
 122 552 l 1
122 678 m 1
 0 678 l 1
 0 800 l 1
 122 800 l 1
 122 678 l 1
EndSplineSet
Validated: 1
EndChar

StartChar: R
Encoding: 82 82 107
Width: 123
Flags: HW
LayerCount: 2
Fore
SplineSet
122 -75 m 5
 0 -75 l 5
 0 48 l 5
 122 48 l 5
 122 -75 l 5
122 176 m 1
 0 176 l 1
 0 298 l 1
 122 298 l 1
 122 176 l 1
122 552 m 1
 0 552 l 1
 0 675 l 1
 122 675 l 1
 122 552 l 1
EndSplineSet
Validated: 1
EndChar

StartChar: Q
Encoding: 81 81 108
Width: 123
Flags: HW
LayerCount: 2
Fore
SplineSet
122 -75 m 5
 0 -75 l 5
 0 48 l 5
 122 48 l 5
 122 -75 l 5
122 176 m 1
 0 176 l 1
 0 298 l 1
 122 298 l 1
 122 176 l 1
122 678 m 1
 0 678 l 1
 0 800 l 1
 122 800 l 1
 122 678 l 1
EndSplineSet
Validated: 1
EndChar

StartChar: l
Encoding: 108 108 109
Width: 123
Flags: HW
LayerCount: 2
Fore
SplineSet
122 -75 m 5
 0 -75 l 5
 0 48 l 5
 122 48 l 5
 122 -75 l 5
122 51 m 1
 0 51 l 1
 0 173 l 1
 122 173 l 1
 122 51 l 1
122 302 m 1
 0 302 l 1
 0 424 l 1
 122 424 l 1
 122 302 l 1
122 427 m 1
 0 427 l 1
 0 549 l 1
 122 549 l 1
 122 427 l 1
EndSplineSet
Validated: 1
EndChar

StartChar: m
Encoding: 109 109 110
Width: 123
Flags: HW
LayerCount: 2
Fore
SplineSet
122 -75 m 5
 0 -75 l 5
 0 48 l 5
 122 48 l 5
 122 -75 l 5
122 51 m 1
 0 51 l 1
 0 173 l 1
 122 173 l 1
 122 51 l 1
122 302 m 1
 0 302 l 1
 0 424 l 1
 122 424 l 1
 122 302 l 1
122 427 m 1
 0 427 l 1
 0 549 l 1
 122 549 l 1
 122 427 l 1
122 678 m 1
 0 678 l 1
 0 800 l 1
 122 800 l 1
 122 678 l 1
EndSplineSet
Validated: 1
EndChar

StartChar: n
Encoding: 110 110 111
Width: 123
Flags: HW
LayerCount: 2
Fore
SplineSet
122 -75 m 5
 0 -75 l 5
 0 48 l 5
 122 48 l 5
 122 -75 l 5
122 51 m 1
 0 51 l 1
 0 173 l 1
 122 173 l 1
 122 51 l 1
122 302 m 1
 0 302 l 1
 0 424 l 1
 122 424 l 1
 122 302 l 1
122 427 m 1
 0 427 l 1
 0 549 l 1
 122 549 l 1
 122 427 l 1
122 552 m 1
 0 552 l 1
 0 675 l 1
 122 675 l 1
 122 552 l 1
EndSplineSet
Validated: 1
EndChar

StartChar: o
Encoding: 111 111 112
Width: 123
Flags: HW
LayerCount: 2
Fore
SplineSet
122 -75 m 5
 0 -75 l 5
 0 48 l 5
 122 48 l 5
 122 -75 l 5
122 51 m 1
 0 51 l 1
 0 173 l 1
 122 173 l 1
 122 51 l 1
122 302 m 1
 0 302 l 1
 0 424 l 1
 122 424 l 1
 122 302 l 1
122 427 m 1
 0 427 l 1
 0 549 l 1
 122 549 l 1
 122 427 l 1
122 552 m 1
 0 552 l 1
 0 675 l 1
 122 675 l 1
 122 552 l 1
122 678 m 1
 0 678 l 1
 0 800 l 1
 122 800 l 1
 122 678 l 1
EndSplineSet
Validated: 1
EndChar

StartChar: p
Encoding: 112 112 113
Width: 123
Flags: HW
LayerCount: 2
Fore
SplineSet
122 -75 m 5
 0 -75 l 5
 0 48 l 5
 122 48 l 5
 122 -75 l 5
122 51 m 1
 0 51 l 1
 0 173 l 1
 122 173 l 1
 122 51 l 1
122 176 m 1
 0 176 l 1
 0 298 l 1
 122 298 l 1
 122 176 l 1
EndSplineSet
Validated: 1
EndChar

StartChar: q
Encoding: 113 113 114
Width: 123
Flags: HW
LayerCount: 2
Fore
SplineSet
122 -75 m 5
 0 -75 l 5
 0 48 l 5
 122 48 l 5
 122 -75 l 5
122 51 m 1
 0 51 l 1
 0 173 l 1
 122 173 l 1
 122 51 l 1
122 176 m 1
 0 176 l 1
 0 298 l 1
 122 298 l 1
 122 176 l 1
122 678 m 1
 0 678 l 1
 0 800 l 1
 122 800 l 1
 122 678 l 1
EndSplineSet
Validated: 1
EndChar

StartChar: r
Encoding: 114 114 115
Width: 123
Flags: HW
LayerCount: 2
Fore
SplineSet
122 -75 m 5
 0 -75 l 5
 0 48 l 5
 122 48 l 5
 122 -75 l 5
122 51 m 1
 0 51 l 1
 0 173 l 1
 122 173 l 1
 122 51 l 1
122 176 m 1
 0 176 l 1
 0 298 l 1
 122 298 l 1
 122 176 l 1
122 552 m 1
 0 552 l 1
 0 675 l 1
 122 675 l 1
 122 552 l 1
EndSplineSet
Validated: 1
EndChar

StartChar: s
Encoding: 115 115 116
Width: 123
Flags: HW
LayerCount: 2
Fore
SplineSet
122 -75 m 5
 0 -75 l 5
 0 48 l 5
 122 48 l 5
 122 -75 l 5
122 51 m 1
 0 51 l 1
 0 173 l 1
 122 173 l 1
 122 51 l 1
122 176 m 1
 0 176 l 1
 0 298 l 1
 122 298 l 1
 122 176 l 1
122 552 m 1
 0 552 l 1
 0 675 l 1
 122 675 l 1
 122 552 l 1
122 678 m 1
 0 678 l 1
 0 800 l 1
 122 800 l 1
 122 678 l 1
EndSplineSet
Validated: 1
EndChar

StartChar: t
Encoding: 116 116 117
Width: 123
Flags: HW
LayerCount: 2
Fore
SplineSet
122 -75 m 5
 0 -75 l 5
 0 48 l 5
 122 48 l 5
 122 -75 l 5
122 51 m 1
 0 51 l 1
 0 173 l 1
 122 173 l 1
 122 51 l 1
122 176 m 1
 0 176 l 1
 0 298 l 1
 122 298 l 1
 122 176 l 1
122 427 m 1
 0 427 l 1
 0 549 l 1
 122 549 l 1
 122 427 l 1
EndSplineSet
Validated: 1
EndChar

StartChar: u
Encoding: 117 117 118
Width: 123
Flags: HW
LayerCount: 2
Fore
SplineSet
122 -75 m 5
 0 -75 l 5
 0 48 l 5
 122 48 l 5
 122 -75 l 5
122 51 m 1
 0 51 l 1
 0 173 l 1
 122 173 l 1
 122 51 l 1
122 176 m 1
 0 176 l 1
 0 298 l 1
 122 298 l 1
 122 176 l 1
122 427 m 1
 0 427 l 1
 0 549 l 1
 122 549 l 1
 122 427 l 1
122 678 m 1
 0 678 l 1
 0 800 l 1
 122 800 l 1
 122 678 l 1
EndSplineSet
Validated: 1
EndChar

StartChar: v
Encoding: 118 118 119
Width: 123
Flags: HW
LayerCount: 2
Fore
SplineSet
122 -75 m 5
 0 -75 l 5
 0 48 l 5
 122 48 l 5
 122 -75 l 5
122 51 m 1
 0 51 l 1
 0 173 l 1
 122 173 l 1
 122 51 l 1
122 176 m 1
 0 176 l 1
 0 298 l 1
 122 298 l 1
 122 176 l 1
122 427 m 1
 0 427 l 1
 0 549 l 1
 122 549 l 1
 122 427 l 1
122 552 m 1
 0 552 l 1
 0 675 l 1
 122 675 l 1
 122 552 l 1
EndSplineSet
Validated: 1
EndChar

StartChar: w
Encoding: 119 119 120
Width: 123
Flags: HW
LayerCount: 2
Fore
SplineSet
122 -75 m 5
 0 -75 l 5
 0 48 l 5
 122 48 l 5
 122 -75 l 5
122 51 m 1
 0 51 l 1
 0 173 l 1
 122 173 l 1
 122 51 l 1
122 176 m 1
 0 176 l 1
 0 298 l 1
 122 298 l 1
 122 176 l 1
122 427 m 1
 0 427 l 1
 0 549 l 1
 122 549 l 1
 122 427 l 1
122 552 m 1
 0 552 l 1
 0 675 l 1
 122 675 l 1
 122 552 l 1
122 678 m 1
 0 678 l 1
 0 800 l 1
 122 800 l 1
 122 678 l 1
EndSplineSet
Validated: 1
EndChar

StartChar: x
Encoding: 120 120 121
Width: 123
Flags: HW
LayerCount: 2
Fore
SplineSet
122 -75 m 5
 0 -75 l 5
 0 48 l 5
 122 48 l 5
 122 -75 l 5
122 51 m 1
 0 51 l 1
 0 173 l 1
 122 173 l 1
 122 51 l 1
122 176 m 1
 0 176 l 1
 0 298 l 1
 122 298 l 1
 122 176 l 1
122 302 m 1
 0 302 l 1
 0 424 l 1
 122 424 l 1
 122 302 l 1
EndSplineSet
Validated: 1
EndChar

StartChar: y
Encoding: 121 121 122
Width: 123
Flags: HW
LayerCount: 2
Fore
SplineSet
122 -75 m 5
 0 -75 l 5
 0 48 l 5
 122 48 l 5
 122 -75 l 5
122 51 m 1
 0 51 l 1
 0 173 l 1
 122 173 l 1
 122 51 l 1
122 176 m 1
 0 176 l 1
 0 298 l 1
 122 298 l 1
 122 176 l 1
122 302 m 1
 0 302 l 1
 0 424 l 1
 122 424 l 1
 122 302 l 1
122 678 m 1
 0 678 l 1
 0 800 l 1
 122 800 l 1
 122 678 l 1
EndSplineSet
Validated: 1
EndChar

StartChar: z
Encoding: 122 122 123
Width: 123
Flags: HW
LayerCount: 2
Fore
SplineSet
122 -75 m 5
 0 -75 l 5
 0 48 l 5
 122 48 l 5
 122 -75 l 5
122 51 m 1
 0 51 l 1
 0 173 l 1
 122 173 l 1
 122 51 l 1
122 176 m 1
 0 176 l 1
 0 298 l 1
 122 298 l 1
 122 176 l 1
122 302 m 1
 0 302 l 1
 0 424 l 1
 122 424 l 1
 122 302 l 1
122 552 m 1
 0 552 l 1
 0 675 l 1
 122 675 l 1
 122 552 l 1
EndSplineSet
Validated: 1
EndChar

StartChar: braceleft
Encoding: 123 123 124
Width: 123
Flags: HW
LayerCount: 2
Fore
SplineSet
122 -75 m 5
 0 -75 l 5
 0 48 l 5
 122 48 l 5
 122 -75 l 5
122 51 m 1
 0 51 l 1
 0 173 l 1
 122 173 l 1
 122 51 l 1
122 176 m 1
 0 176 l 1
 0 298 l 1
 122 298 l 1
 122 176 l 1
122 302 m 1
 0 302 l 1
 0 424 l 1
 122 424 l 1
 122 302 l 1
122 552 m 1
 0 552 l 1
 0 675 l 1
 122 675 l 1
 122 552 l 1
122 678 m 1
 0 678 l 1
 0 800 l 1
 122 800 l 1
 122 678 l 1
EndSplineSet
Validated: 1
EndChar

StartChar: bar
Encoding: 124 124 125
Width: 123
Flags: HW
LayerCount: 2
Fore
SplineSet
122 -75 m 5
 0 -75 l 5
 0 48 l 5
 122 48 l 5
 122 -75 l 5
122 51 m 1
 0 51 l 1
 0 173 l 1
 122 173 l 1
 122 51 l 1
122 176 m 1
 0 176 l 1
 0 298 l 1
 122 298 l 1
 122 176 l 1
122 302 m 1
 0 302 l 1
 0 424 l 1
 122 424 l 1
 122 302 l 1
122 427 m 1
 0 427 l 1
 0 549 l 1
 122 549 l 1
 122 427 l 1
EndSplineSet
Validated: 1
EndChar

StartChar: braceright
Encoding: 125 125 126
Width: 123
Flags: HW
LayerCount: 2
Fore
SplineSet
122 -75 m 5
 0 -75 l 5
 0 48 l 5
 122 48 l 5
 122 -75 l 5
122 51 m 1
 0 51 l 1
 0 173 l 1
 122 173 l 1
 122 51 l 1
122 176 m 1
 0 176 l 1
 0 298 l 1
 122 298 l 1
 122 176 l 1
122 302 m 1
 0 302 l 1
 0 424 l 1
 122 424 l 1
 122 302 l 1
122 427 m 1
 0 427 l 1
 0 549 l 1
 122 549 l 1
 122 427 l 1
122 678 m 1
 0 678 l 1
 0 800 l 1
 122 800 l 1
 122 678 l 1
EndSplineSet
Validated: 1
EndChar

StartChar: asciitilde
Encoding: 126 126 127
Width: 123
Flags: HW
LayerCount: 2
Fore
SplineSet
122 -75 m 5
 0 -75 l 5
 0 48 l 5
 122 48 l 5
 122 -75 l 5
122 51 m 1
 0 51 l 1
 0 173 l 1
 122 173 l 1
 122 51 l 1
122 176 m 1
 0 176 l 1
 0 298 l 1
 122 298 l 1
 122 176 l 1
122 302 m 1
 0 302 l 1
 0 424 l 1
 122 424 l 1
 122 302 l 1
122 427 m 1
 0 427 l 1
 0 549 l 1
 122 549 l 1
 122 427 l 1
122 552 m 1
 0 552 l 1
 0 675 l 1
 122 675 l 1
 122 552 l 1
EndSplineSet
Validated: 1
EndChar

StartChar: uni007F
Encoding: 127 127 128
Width: 123
Flags: HW
LayerCount: 2
Fore
SplineSet
122 -75 m 5
 0 -75 l 5
 0 48 l 5
 122 48 l 5
 122 -75 l 5
122 51 m 1
 0 51 l 1
 0 173 l 1
 122 173 l 1
 122 51 l 1
122 176 m 1
 0 176 l 1
 0 298 l 1
 122 298 l 1
 122 176 l 1
122 302 m 1
 0 302 l 1
 0 424 l 1
 122 424 l 1
 122 302 l 1
122 427 m 1
 0 427 l 1
 0 549 l 1
 122 549 l 1
 122 427 l 1
122 552 m 1
 0 552 l 1
 0 675 l 1
 122 675 l 1
 122 552 l 1
122 678 m 1
 0 678 l 1
 0 800 l 1
 122 800 l 1
 122 678 l 1
EndSplineSet
Validated: 1
EndChar

StartChar: uni0080
Encoding: 128 128 129
Width: 125
Flags: HW
LayerCount: 2
Fore
SplineSet
122 -200 m 5
 0 -200 l 5
 0 -78 l 5
 122 -78 l 5
 122 -200 l 5
EndSplineSet
Validated: 1
EndChar

StartChar: uni0081
Encoding: 129 129 130
Width: 123
Flags: HW
LayerCount: 2
Fore
SplineSet
122 -200 m 5
 0 -200 l 5
 0 -78 l 5
 122 -78 l 5
 122 -200 l 5
122 678 m 1
 0 678 l 1
 0 800 l 1
 122 800 l 1
 122 678 l 1
EndSplineSet
Validated: 1
EndChar

StartChar: uni0082
Encoding: 130 130 131
Width: 123
Flags: HW
LayerCount: 2
Fore
SplineSet
122 -200 m 5
 0 -200 l 5
 0 -78 l 5
 122 -78 l 5
 122 -200 l 5
122 552 m 1
 0 552 l 1
 0 675 l 1
 122 675 l 1
 122 552 l 1
EndSplineSet
Validated: 1
EndChar

StartChar: uni0083
Encoding: 131 131 132
Width: 123
Flags: HW
LayerCount: 2
Fore
SplineSet
122 -200 m 5
 0 -200 l 5
 0 -78 l 5
 122 -78 l 5
 122 -200 l 5
122 552 m 1
 0 552 l 1
 0 675 l 1
 122 675 l 1
 122 552 l 1
122 678 m 1
 0 678 l 1
 0 800 l 1
 122 800 l 1
 122 678 l 1
EndSplineSet
Validated: 1
EndChar

StartChar: uni0084
Encoding: 132 132 133
Width: 123
Flags: HW
LayerCount: 2
Fore
SplineSet
122 -200 m 5
 0 -200 l 5
 0 -78 l 5
 122 -78 l 5
 122 -200 l 5
122 427 m 1
 0 427 l 1
 0 549 l 1
 122 549 l 1
 122 427 l 1
EndSplineSet
Validated: 1
EndChar

StartChar: uni0085
Encoding: 133 133 134
Width: 123
Flags: HW
LayerCount: 2
Fore
SplineSet
122 -200 m 5
 0 -200 l 5
 0 -78 l 5
 122 -78 l 5
 122 -200 l 5
122 427 m 1
 0 427 l 1
 0 549 l 1
 122 549 l 1
 122 427 l 1
122 678 m 1
 0 678 l 1
 0 800 l 1
 122 800 l 1
 122 678 l 1
EndSplineSet
Validated: 1
EndChar

StartChar: uni0086
Encoding: 134 134 135
Width: 123
Flags: HW
LayerCount: 2
Fore
SplineSet
122 -200 m 5
 0 -200 l 5
 0 -78 l 5
 122 -78 l 5
 122 -200 l 5
122 427 m 1
 0 427 l 1
 0 549 l 1
 122 549 l 1
 122 427 l 1
122 552 m 1
 0 552 l 1
 0 675 l 1
 122 675 l 1
 122 552 l 1
EndSplineSet
Validated: 1
EndChar

StartChar: uni0087
Encoding: 135 135 136
Width: 123
Flags: HW
LayerCount: 2
Fore
SplineSet
122 -200 m 5
 0 -200 l 5
 0 -78 l 5
 122 -78 l 5
 122 -200 l 5
122 427 m 1
 0 427 l 1
 0 549 l 1
 122 549 l 1
 122 427 l 1
122 552 m 1
 0 552 l 1
 0 675 l 1
 122 675 l 1
 122 552 l 1
122 678 m 1
 0 678 l 1
 0 800 l 1
 122 800 l 1
 122 678 l 1
EndSplineSet
Validated: 1
EndChar

StartChar: uni0088
Encoding: 136 136 137
Width: 123
Flags: HW
LayerCount: 2
Fore
SplineSet
122 -200 m 5
 0 -200 l 5
 0 -78 l 5
 122 -78 l 5
 122 -200 l 5
122 302 m 1
 0 302 l 1
 0 424 l 1
 122 424 l 1
 122 302 l 1
EndSplineSet
Validated: 1
EndChar

StartChar: uni0089
Encoding: 137 137 138
Width: 123
Flags: HW
LayerCount: 2
Fore
SplineSet
122 -200 m 5
 0 -200 l 5
 0 -78 l 5
 122 -78 l 5
 122 -200 l 5
122 302 m 1
 0 302 l 1
 0 424 l 1
 122 424 l 1
 122 302 l 1
122 678 m 1
 0 678 l 1
 0 800 l 1
 122 800 l 1
 122 678 l 1
EndSplineSet
Validated: 1
EndChar

StartChar: uni008A
Encoding: 138 138 139
Width: 123
Flags: HW
LayerCount: 2
Fore
SplineSet
122 -200 m 5
 0 -200 l 5
 0 -78 l 5
 122 -78 l 5
 122 -200 l 5
122 302 m 1
 0 302 l 1
 0 424 l 1
 122 424 l 1
 122 302 l 1
122 552 m 1
 0 552 l 1
 0 675 l 1
 122 675 l 1
 122 552 l 1
EndSplineSet
Validated: 1
EndChar

StartChar: uni008B
Encoding: 139 139 140
Width: 123
Flags: HW
LayerCount: 2
Fore
SplineSet
122 -200 m 5
 0 -200 l 5
 0 -78 l 5
 122 -78 l 5
 122 -200 l 5
122 302 m 1
 0 302 l 1
 0 424 l 1
 122 424 l 1
 122 302 l 1
122 552 m 1
 0 552 l 1
 0 675 l 1
 122 675 l 1
 122 552 l 1
122 678 m 1
 0 678 l 1
 0 800 l 1
 122 800 l 1
 122 678 l 1
EndSplineSet
Validated: 1
EndChar

StartChar: uni008C
Encoding: 140 140 141
Width: 123
Flags: HW
LayerCount: 2
Fore
SplineSet
122 -200 m 5
 0 -200 l 5
 0 -78 l 5
 122 -78 l 5
 122 -200 l 5
122 302 m 1
 0 302 l 1
 0 424 l 1
 122 424 l 1
 122 302 l 1
122 427 m 1
 0 427 l 1
 0 549 l 1
 122 549 l 1
 122 427 l 1
EndSplineSet
Validated: 1
EndChar

StartChar: uni008D
Encoding: 141 141 142
Width: 123
Flags: HW
LayerCount: 2
Fore
SplineSet
122 -200 m 5
 0 -200 l 5
 0 -78 l 5
 122 -78 l 5
 122 -200 l 5
122 302 m 1
 0 302 l 1
 0 424 l 1
 122 424 l 1
 122 302 l 1
122 427 m 1
 0 427 l 1
 0 549 l 1
 122 549 l 1
 122 427 l 1
122 678 m 1
 0 678 l 1
 0 800 l 1
 122 800 l 1
 122 678 l 1
EndSplineSet
Validated: 1
EndChar

StartChar: uni008E
Encoding: 142 142 143
Width: 123
Flags: HW
LayerCount: 2
Fore
SplineSet
122 -200 m 5
 0 -200 l 5
 0 -78 l 5
 122 -78 l 5
 122 -200 l 5
122 302 m 1
 0 302 l 1
 0 424 l 1
 122 424 l 1
 122 302 l 1
122 427 m 1
 0 427 l 1
 0 549 l 1
 122 549 l 1
 122 427 l 1
122 552 m 1
 0 552 l 1
 0 675 l 1
 122 675 l 1
 122 552 l 1
EndSplineSet
Validated: 1
EndChar

StartChar: uni008F
Encoding: 143 143 144
Width: 123
Flags: HW
LayerCount: 2
Fore
SplineSet
122 -200 m 5
 0 -200 l 5
 0 -78 l 5
 122 -78 l 5
 122 -200 l 5
122 302 m 1
 0 302 l 1
 0 424 l 1
 122 424 l 1
 122 302 l 1
122 427 m 1
 0 427 l 1
 0 549 l 1
 122 549 l 1
 122 427 l 1
122 552 m 1
 0 552 l 1
 0 675 l 1
 122 675 l 1
 122 552 l 1
122 678 m 1
 0 678 l 1
 0 800 l 1
 122 800 l 1
 122 678 l 1
EndSplineSet
Validated: 1
EndChar

StartChar: uni0090
Encoding: 144 144 145
Width: 123
Flags: HW
LayerCount: 2
Fore
SplineSet
122 -200 m 5
 0 -200 l 5
 0 -78 l 5
 122 -78 l 5
 122 -200 l 5
122 176 m 1
 0 176 l 1
 0 298 l 1
 122 298 l 1
 122 176 l 1
EndSplineSet
Validated: 1
EndChar

StartChar: uni0091
Encoding: 145 145 146
Width: 123
Flags: HW
LayerCount: 2
Fore
SplineSet
122 -200 m 5
 0 -200 l 5
 0 -78 l 5
 122 -78 l 5
 122 -200 l 5
122 176 m 1
 0 176 l 1
 0 298 l 1
 122 298 l 1
 122 176 l 1
122 678 m 1
 0 678 l 1
 0 800 l 1
 122 800 l 1
 122 678 l 1
EndSplineSet
Validated: 1
EndChar

StartChar: uni0092
Encoding: 146 146 147
Width: 123
Flags: HW
LayerCount: 2
Fore
SplineSet
122 -200 m 5
 0 -200 l 5
 0 -78 l 5
 122 -78 l 5
 122 -200 l 5
122 176 m 1
 0 176 l 1
 0 298 l 1
 122 298 l 1
 122 176 l 1
122 552 m 1
 0 552 l 1
 0 675 l 1
 122 675 l 1
 122 552 l 1
EndSplineSet
Validated: 1
EndChar

StartChar: uni0093
Encoding: 147 147 148
Width: 123
Flags: HW
LayerCount: 2
Fore
SplineSet
122 -200 m 5
 0 -200 l 5
 0 -78 l 5
 122 -78 l 5
 122 -200 l 5
122 176 m 1
 0 176 l 1
 0 298 l 1
 122 298 l 1
 122 176 l 1
122 552 m 1
 0 552 l 1
 0 675 l 1
 122 675 l 1
 122 552 l 1
122 678 m 1
 0 678 l 1
 0 800 l 1
 122 800 l 1
 122 678 l 1
EndSplineSet
Validated: 1
EndChar

StartChar: uni0094
Encoding: 148 148 149
Width: 123
Flags: HW
LayerCount: 2
Fore
SplineSet
122 -200 m 5
 0 -200 l 5
 0 -78 l 5
 122 -78 l 5
 122 -200 l 5
122 176 m 1
 0 176 l 1
 0 298 l 1
 122 298 l 1
 122 176 l 1
122 427 m 1
 0 427 l 1
 0 549 l 1
 122 549 l 1
 122 427 l 1
EndSplineSet
Validated: 1
EndChar

StartChar: uni0095
Encoding: 149 149 150
Width: 123
Flags: HW
LayerCount: 2
Fore
SplineSet
122 -200 m 5
 0 -200 l 5
 0 -78 l 5
 122 -78 l 5
 122 -200 l 5
122 176 m 1
 0 176 l 1
 0 298 l 1
 122 298 l 1
 122 176 l 1
122 427 m 1
 0 427 l 1
 0 549 l 1
 122 549 l 1
 122 427 l 1
122 678 m 1
 0 678 l 1
 0 800 l 1
 122 800 l 1
 122 678 l 1
EndSplineSet
Validated: 1
EndChar

StartChar: uni0096
Encoding: 150 150 151
Width: 123
Flags: HW
LayerCount: 2
Fore
SplineSet
122 -200 m 5
 0 -200 l 5
 0 -78 l 5
 122 -78 l 5
 122 -200 l 5
122 176 m 1
 0 176 l 1
 0 298 l 1
 122 298 l 1
 122 176 l 1
122 427 m 1
 0 427 l 1
 0 549 l 1
 122 549 l 1
 122 427 l 1
122 552 m 1
 0 552 l 1
 0 675 l 1
 122 675 l 1
 122 552 l 1
EndSplineSet
Validated: 1
EndChar

StartChar: uni0097
Encoding: 151 151 152
Width: 123
Flags: HW
LayerCount: 2
Fore
SplineSet
122 -200 m 5
 0 -200 l 5
 0 -78 l 5
 122 -78 l 5
 122 -200 l 5
122 176 m 1
 0 176 l 1
 0 298 l 1
 122 298 l 1
 122 176 l 1
122 427 m 1
 0 427 l 1
 0 549 l 1
 122 549 l 1
 122 427 l 1
122 552 m 1
 0 552 l 1
 0 675 l 1
 122 675 l 1
 122 552 l 1
122 678 m 1
 0 678 l 1
 0 800 l 1
 122 800 l 1
 122 678 l 1
EndSplineSet
Validated: 1
EndChar

StartChar: uni0098
Encoding: 152 152 153
Width: 123
Flags: HW
LayerCount: 2
Fore
SplineSet
122 -200 m 5
 0 -200 l 5
 0 -78 l 5
 122 -78 l 5
 122 -200 l 5
122 176 m 1
 0 176 l 1
 0 298 l 1
 122 298 l 1
 122 176 l 1
122 302 m 1
 0 302 l 1
 0 424 l 1
 122 424 l 1
 122 302 l 1
EndSplineSet
Validated: 1
EndChar

StartChar: uni0099
Encoding: 153 153 154
Width: 123
Flags: HW
LayerCount: 2
Fore
SplineSet
122 -200 m 5
 0 -200 l 5
 0 -78 l 5
 122 -78 l 5
 122 -200 l 5
122 176 m 1
 0 176 l 1
 0 298 l 1
 122 298 l 1
 122 176 l 1
122 302 m 1
 0 302 l 1
 0 424 l 1
 122 424 l 1
 122 302 l 1
122 678 m 1
 0 678 l 1
 0 800 l 1
 122 800 l 1
 122 678 l 1
EndSplineSet
Validated: 1
EndChar

StartChar: uni009A
Encoding: 154 154 155
Width: 123
Flags: HW
LayerCount: 2
Fore
SplineSet
122 -200 m 5
 0 -200 l 5
 0 -78 l 5
 122 -78 l 5
 122 -200 l 5
122 176 m 1
 0 176 l 1
 0 298 l 1
 122 298 l 1
 122 176 l 1
122 302 m 1
 0 302 l 1
 0 424 l 1
 122 424 l 1
 122 302 l 1
122 552 m 1
 0 552 l 1
 0 675 l 1
 122 675 l 1
 122 552 l 1
EndSplineSet
Validated: 1
EndChar

StartChar: uni009B
Encoding: 155 155 156
Width: 123
Flags: HW
LayerCount: 2
Fore
SplineSet
122 -200 m 5
 0 -200 l 5
 0 -78 l 5
 122 -78 l 5
 122 -200 l 5
122 176 m 1
 0 176 l 1
 0 298 l 1
 122 298 l 1
 122 176 l 1
122 302 m 1
 0 302 l 1
 0 424 l 1
 122 424 l 1
 122 302 l 1
122 552 m 1
 0 552 l 1
 0 675 l 1
 122 675 l 1
 122 552 l 1
122 678 m 1
 0 678 l 1
 0 800 l 1
 122 800 l 1
 122 678 l 1
EndSplineSet
Validated: 1
EndChar

StartChar: uni009C
Encoding: 156 156 157
Width: 123
Flags: HW
LayerCount: 2
Fore
SplineSet
122 -200 m 5
 0 -200 l 5
 0 -78 l 5
 122 -78 l 5
 122 -200 l 5
122 176 m 1
 0 176 l 1
 0 298 l 1
 122 298 l 1
 122 176 l 1
122 302 m 1
 0 302 l 1
 0 424 l 1
 122 424 l 1
 122 302 l 1
122 427 m 1
 0 427 l 1
 0 549 l 1
 122 549 l 1
 122 427 l 1
EndSplineSet
Validated: 1
EndChar

StartChar: uni009D
Encoding: 157 157 158
Width: 123
Flags: HW
LayerCount: 2
Fore
SplineSet
122 -200 m 5
 0 -200 l 5
 0 -78 l 5
 122 -78 l 5
 122 -200 l 5
122 176 m 1
 0 176 l 1
 0 298 l 1
 122 298 l 1
 122 176 l 1
122 302 m 1
 0 302 l 1
 0 424 l 1
 122 424 l 1
 122 302 l 1
122 427 m 1
 0 427 l 1
 0 549 l 1
 122 549 l 1
 122 427 l 1
122 678 m 1
 0 678 l 1
 0 800 l 1
 122 800 l 1
 122 678 l 1
EndSplineSet
Validated: 1
EndChar

StartChar: uni009E
Encoding: 158 158 159
Width: 123
Flags: HW
LayerCount: 2
Fore
SplineSet
122 -200 m 5
 0 -200 l 5
 0 -78 l 5
 122 -78 l 5
 122 -200 l 5
122 176 m 1
 0 176 l 1
 0 298 l 1
 122 298 l 1
 122 176 l 1
122 302 m 1
 0 302 l 1
 0 424 l 1
 122 424 l 1
 122 302 l 1
122 427 m 1
 0 427 l 1
 0 549 l 1
 122 549 l 1
 122 427 l 1
122 552 m 1
 0 552 l 1
 0 675 l 1
 122 675 l 1
 122 552 l 1
EndSplineSet
Validated: 1
EndChar

StartChar: uni009F
Encoding: 159 159 160
Width: 123
Flags: HW
LayerCount: 2
Fore
SplineSet
122 -200 m 5
 0 -200 l 5
 0 -78 l 5
 122 -78 l 5
 122 -200 l 5
122 176 m 1
 0 176 l 1
 0 298 l 1
 122 298 l 1
 122 176 l 1
122 302 m 1
 0 302 l 1
 0 424 l 1
 122 424 l 1
 122 302 l 1
122 427 m 1
 0 427 l 1
 0 549 l 1
 122 549 l 1
 122 427 l 1
122 552 m 1
 0 552 l 1
 0 675 l 1
 122 675 l 1
 122 552 l 1
122 678 m 1
 0 678 l 1
 0 800 l 1
 122 800 l 1
 122 678 l 1
EndSplineSet
Validated: 1
EndChar

StartChar: uni00A0
Encoding: 160 160 161
Width: 123
Flags: HW
LayerCount: 2
Fore
SplineSet
122 -200 m 5
 0 -200 l 5
 0 -78 l 5
 122 -78 l 5
 122 -200 l 5
122 51 m 1
 0 51 l 1
 0 173 l 1
 122 173 l 1
 122 51 l 1
EndSplineSet
Validated: 1
EndChar

StartChar: exclamdown
Encoding: 161 161 162
Width: 123
Flags: HW
LayerCount: 2
Fore
SplineSet
122 -200 m 5
 0 -200 l 5
 0 -78 l 5
 122 -78 l 5
 122 -200 l 5
122 51 m 1
 0 51 l 1
 0 173 l 1
 122 173 l 1
 122 51 l 1
122 678 m 1
 0 678 l 1
 0 800 l 1
 122 800 l 1
 122 678 l 1
EndSplineSet
Validated: 1
EndChar

StartChar: cent
Encoding: 162 162 163
Width: 123
Flags: HW
LayerCount: 2
Fore
SplineSet
122 -200 m 5
 0 -200 l 5
 0 -78 l 5
 122 -78 l 5
 122 -200 l 5
122 51 m 1
 0 51 l 1
 0 173 l 1
 122 173 l 1
 122 51 l 1
122 552 m 1
 0 552 l 1
 0 675 l 1
 122 675 l 1
 122 552 l 1
EndSplineSet
Validated: 1
EndChar

StartChar: sterling
Encoding: 163 163 164
Width: 123
Flags: HW
LayerCount: 2
Fore
SplineSet
122 -200 m 5
 0 -200 l 5
 0 -78 l 5
 122 -78 l 5
 122 -200 l 5
122 51 m 1
 0 51 l 1
 0 173 l 1
 122 173 l 1
 122 51 l 1
122 552 m 1
 0 552 l 1
 0 675 l 1
 122 675 l 1
 122 552 l 1
122 678 m 1
 0 678 l 1
 0 800 l 1
 122 800 l 1
 122 678 l 1
EndSplineSet
Validated: 1
EndChar

StartChar: currency
Encoding: 164 164 165
Width: 123
Flags: HW
LayerCount: 2
Fore
SplineSet
122 -200 m 5
 0 -200 l 5
 0 -78 l 5
 122 -78 l 5
 122 -200 l 5
122 51 m 1
 0 51 l 1
 0 173 l 1
 122 173 l 1
 122 51 l 1
122 427 m 1
 0 427 l 1
 0 549 l 1
 122 549 l 1
 122 427 l 1
EndSplineSet
Validated: 1
EndChar

StartChar: yen
Encoding: 165 165 166
Width: 123
Flags: HW
LayerCount: 2
Fore
SplineSet
122 -200 m 5
 0 -200 l 5
 0 -78 l 5
 122 -78 l 5
 122 -200 l 5
122 51 m 1
 0 51 l 1
 0 173 l 1
 122 173 l 1
 122 51 l 1
122 427 m 1
 0 427 l 1
 0 549 l 1
 122 549 l 1
 122 427 l 1
122 678 m 1
 0 678 l 1
 0 800 l 1
 122 800 l 1
 122 678 l 1
EndSplineSet
Validated: 1
EndChar

StartChar: brokenbar
Encoding: 166 166 167
Width: 123
Flags: HW
LayerCount: 2
Fore
SplineSet
122 -200 m 5
 0 -200 l 5
 0 -78 l 5
 122 -78 l 5
 122 -200 l 5
122 51 m 1
 0 51 l 1
 0 173 l 1
 122 173 l 1
 122 51 l 1
122 427 m 1
 0 427 l 1
 0 549 l 1
 122 549 l 1
 122 427 l 1
122 552 m 1
 0 552 l 1
 0 675 l 1
 122 675 l 1
 122 552 l 1
EndSplineSet
Validated: 1
EndChar

StartChar: section
Encoding: 167 167 168
Width: 123
Flags: HW
LayerCount: 2
Fore
SplineSet
122 -200 m 5
 0 -200 l 5
 0 -78 l 5
 122 -78 l 5
 122 -200 l 5
122 51 m 1
 0 51 l 1
 0 173 l 1
 122 173 l 1
 122 51 l 1
122 427 m 1
 0 427 l 1
 0 549 l 1
 122 549 l 1
 122 427 l 1
122 552 m 1
 0 552 l 1
 0 675 l 1
 122 675 l 1
 122 552 l 1
122 678 m 1
 0 678 l 1
 0 800 l 1
 122 800 l 1
 122 678 l 1
EndSplineSet
Validated: 1
EndChar

StartChar: dieresis
Encoding: 168 168 169
Width: 123
Flags: HW
LayerCount: 2
Fore
SplineSet
122 -200 m 5
 0 -200 l 5
 0 -78 l 5
 122 -78 l 5
 122 -200 l 5
122 51 m 1
 0 51 l 1
 0 173 l 1
 122 173 l 1
 122 51 l 1
122 302 m 1
 0 302 l 1
 0 424 l 1
 122 424 l 1
 122 302 l 1
EndSplineSet
Validated: 1
EndChar

StartChar: copyright
Encoding: 169 169 170
Width: 123
Flags: HW
LayerCount: 2
Fore
SplineSet
122 -200 m 5
 0 -200 l 5
 0 -78 l 5
 122 -78 l 5
 122 -200 l 5
122 51 m 1
 0 51 l 1
 0 173 l 1
 122 173 l 1
 122 51 l 1
122 302 m 1
 0 302 l 1
 0 424 l 1
 122 424 l 1
 122 302 l 1
122 678 m 1
 0 678 l 1
 0 800 l 1
 122 800 l 1
 122 678 l 1
EndSplineSet
Validated: 1
EndChar

StartChar: ordfeminine
Encoding: 170 170 171
Width: 123
Flags: HW
LayerCount: 2
Fore
SplineSet
122 -200 m 5
 0 -200 l 5
 0 -78 l 5
 122 -78 l 5
 122 -200 l 5
122 51 m 1
 0 51 l 1
 0 173 l 1
 122 173 l 1
 122 51 l 1
122 302 m 1
 0 302 l 1
 0 424 l 1
 122 424 l 1
 122 302 l 1
122 552 m 1
 0 552 l 1
 0 675 l 1
 122 675 l 1
 122 552 l 1
EndSplineSet
Validated: 1
EndChar

StartChar: guillemotleft
Encoding: 171 171 172
Width: 123
Flags: HW
LayerCount: 2
Fore
SplineSet
122 -200 m 5
 0 -200 l 5
 0 -78 l 5
 122 -78 l 5
 122 -200 l 5
122 51 m 1
 0 51 l 1
 0 173 l 1
 122 173 l 1
 122 51 l 1
122 302 m 1
 0 302 l 1
 0 424 l 1
 122 424 l 1
 122 302 l 1
122 552 m 1
 0 552 l 1
 0 675 l 1
 122 675 l 1
 122 552 l 1
122 678 m 1
 0 678 l 1
 0 800 l 1
 122 800 l 1
 122 678 l 1
EndSplineSet
Validated: 1
EndChar

StartChar: logicalnot
Encoding: 172 172 173
Width: 123
Flags: HW
LayerCount: 2
Fore
SplineSet
122 -200 m 5
 0 -200 l 5
 0 -78 l 5
 122 -78 l 5
 122 -200 l 5
122 51 m 1
 0 51 l 1
 0 173 l 1
 122 173 l 1
 122 51 l 1
122 302 m 1
 0 302 l 1
 0 424 l 1
 122 424 l 1
 122 302 l 1
122 427 m 1
 0 427 l 1
 0 549 l 1
 122 549 l 1
 122 427 l 1
EndSplineSet
Validated: 1
EndChar

StartChar: uni00AD
Encoding: 173 173 174
Width: 123
Flags: HW
LayerCount: 2
Fore
SplineSet
122 -200 m 5
 0 -200 l 5
 0 -78 l 5
 122 -78 l 5
 122 -200 l 5
122 51 m 1
 0 51 l 1
 0 173 l 1
 122 173 l 1
 122 51 l 1
122 302 m 1
 0 302 l 1
 0 424 l 1
 122 424 l 1
 122 302 l 1
122 427 m 1
 0 427 l 1
 0 549 l 1
 122 549 l 1
 122 427 l 1
122 678 m 1
 0 678 l 1
 0 800 l 1
 122 800 l 1
 122 678 l 1
EndSplineSet
Validated: 1
EndChar

StartChar: registered
Encoding: 174 174 175
Width: 123
Flags: HW
LayerCount: 2
Fore
SplineSet
122 -200 m 5
 0 -200 l 5
 0 -78 l 5
 122 -78 l 5
 122 -200 l 5
122 51 m 1
 0 51 l 1
 0 173 l 1
 122 173 l 1
 122 51 l 1
122 302 m 1
 0 302 l 1
 0 424 l 1
 122 424 l 1
 122 302 l 1
122 427 m 1
 0 427 l 1
 0 549 l 1
 122 549 l 1
 122 427 l 1
122 552 m 1
 0 552 l 1
 0 675 l 1
 122 675 l 1
 122 552 l 1
EndSplineSet
Validated: 1
EndChar

StartChar: macron
Encoding: 175 175 176
Width: 123
Flags: HW
LayerCount: 2
Fore
SplineSet
122 -200 m 5
 0 -200 l 5
 0 -78 l 5
 122 -78 l 5
 122 -200 l 5
122 51 m 1
 0 51 l 1
 0 173 l 1
 122 173 l 1
 122 51 l 1
122 302 m 1
 0 302 l 1
 0 424 l 1
 122 424 l 1
 122 302 l 1
122 427 m 1
 0 427 l 1
 0 549 l 1
 122 549 l 1
 122 427 l 1
122 552 m 1
 0 552 l 1
 0 675 l 1
 122 675 l 1
 122 552 l 1
122 678 m 1
 0 678 l 1
 0 800 l 1
 122 800 l 1
 122 678 l 1
EndSplineSet
Validated: 1
EndChar

StartChar: degree
Encoding: 176 176 177
Width: 123
Flags: HW
LayerCount: 2
Fore
SplineSet
122 -200 m 5
 0 -200 l 5
 0 -78 l 5
 122 -78 l 5
 122 -200 l 5
122 51 m 1
 0 51 l 1
 0 173 l 1
 122 173 l 1
 122 51 l 1
122 176 m 1
 0 176 l 1
 0 298 l 1
 122 298 l 1
 122 176 l 1
EndSplineSet
Validated: 1
EndChar

StartChar: plusminus
Encoding: 177 177 178
Width: 123
Flags: HW
LayerCount: 2
Fore
SplineSet
122 -200 m 5
 0 -200 l 5
 0 -78 l 5
 122 -78 l 5
 122 -200 l 5
122 51 m 1
 0 51 l 1
 0 173 l 1
 122 173 l 1
 122 51 l 1
122 176 m 1
 0 176 l 1
 0 298 l 1
 122 298 l 1
 122 176 l 1
122 678 m 1
 0 678 l 1
 0 800 l 1
 122 800 l 1
 122 678 l 1
EndSplineSet
Validated: 1
EndChar

StartChar: uni00B2
Encoding: 178 178 179
Width: 123
Flags: HW
LayerCount: 2
Fore
SplineSet
122 -200 m 5
 0 -200 l 5
 0 -78 l 5
 122 -78 l 5
 122 -200 l 5
122 51 m 1
 0 51 l 1
 0 173 l 1
 122 173 l 1
 122 51 l 1
122 176 m 1
 0 176 l 1
 0 298 l 1
 122 298 l 1
 122 176 l 1
122 552 m 1
 0 552 l 1
 0 675 l 1
 122 675 l 1
 122 552 l 1
EndSplineSet
Validated: 1
EndChar

StartChar: uni00B3
Encoding: 179 179 180
Width: 123
Flags: HW
LayerCount: 2
Fore
SplineSet
122 -200 m 5
 0 -200 l 5
 0 -78 l 5
 122 -78 l 5
 122 -200 l 5
122 51 m 1
 0 51 l 1
 0 173 l 1
 122 173 l 1
 122 51 l 1
122 176 m 1
 0 176 l 1
 0 298 l 1
 122 298 l 1
 122 176 l 1
122 552 m 1
 0 552 l 1
 0 675 l 1
 122 675 l 1
 122 552 l 1
122 678 m 1
 0 678 l 1
 0 800 l 1
 122 800 l 1
 122 678 l 1
EndSplineSet
Validated: 1
EndChar

StartChar: acute
Encoding: 180 180 181
Width: 123
Flags: HW
LayerCount: 2
Fore
SplineSet
122 -200 m 5
 0 -200 l 5
 0 -78 l 5
 122 -78 l 5
 122 -200 l 5
122 51 m 1
 0 51 l 1
 0 173 l 1
 122 173 l 1
 122 51 l 1
122 176 m 1
 0 176 l 1
 0 298 l 1
 122 298 l 1
 122 176 l 1
122 427 m 1
 0 427 l 1
 0 549 l 1
 122 549 l 1
 122 427 l 1
EndSplineSet
Validated: 1
EndChar

StartChar: mu
Encoding: 181 181 182
Width: 123
Flags: HW
LayerCount: 2
Fore
SplineSet
122 -200 m 5
 0 -200 l 5
 0 -78 l 5
 122 -78 l 5
 122 -200 l 5
122 51 m 1
 0 51 l 1
 0 173 l 1
 122 173 l 1
 122 51 l 1
122 176 m 1
 0 176 l 1
 0 298 l 1
 122 298 l 1
 122 176 l 1
122 427 m 1
 0 427 l 1
 0 549 l 1
 122 549 l 1
 122 427 l 1
122 678 m 1
 0 678 l 1
 0 800 l 1
 122 800 l 1
 122 678 l 1
EndSplineSet
Validated: 1
EndChar

StartChar: paragraph
Encoding: 182 182 183
Width: 123
Flags: HW
LayerCount: 2
Fore
SplineSet
122 -200 m 5
 0 -200 l 5
 0 -78 l 5
 122 -78 l 5
 122 -200 l 5
122 51 m 1
 0 51 l 1
 0 173 l 1
 122 173 l 1
 122 51 l 1
122 176 m 1
 0 176 l 1
 0 298 l 1
 122 298 l 1
 122 176 l 1
122 427 m 1
 0 427 l 1
 0 549 l 1
 122 549 l 1
 122 427 l 1
122 552 m 1
 0 552 l 1
 0 675 l 1
 122 675 l 1
 122 552 l 1
EndSplineSet
Validated: 1
EndChar

StartChar: periodcentered
Encoding: 183 183 184
Width: 123
Flags: HW
LayerCount: 2
Fore
SplineSet
122 -200 m 5
 0 -200 l 5
 0 -78 l 5
 122 -78 l 5
 122 -200 l 5
122 51 m 1
 0 51 l 1
 0 173 l 1
 122 173 l 1
 122 51 l 1
122 176 m 1
 0 176 l 1
 0 298 l 1
 122 298 l 1
 122 176 l 1
122 427 m 1
 0 427 l 1
 0 549 l 1
 122 549 l 1
 122 427 l 1
122 552 m 1
 0 552 l 1
 0 675 l 1
 122 675 l 1
 122 552 l 1
122 678 m 1
 0 678 l 1
 0 800 l 1
 122 800 l 1
 122 678 l 1
EndSplineSet
Validated: 1
EndChar

StartChar: cedilla
Encoding: 184 184 185
Width: 123
Flags: HW
LayerCount: 2
Fore
SplineSet
122 -200 m 5
 0 -200 l 5
 0 -78 l 5
 122 -78 l 5
 122 -200 l 5
122 51 m 1
 0 51 l 1
 0 173 l 1
 122 173 l 1
 122 51 l 1
122 176 m 1
 0 176 l 1
 0 298 l 1
 122 298 l 1
 122 176 l 1
122 302 m 1
 0 302 l 1
 0 424 l 1
 122 424 l 1
 122 302 l 1
EndSplineSet
Validated: 1
EndChar

StartChar: uni00B9
Encoding: 185 185 186
Width: 123
Flags: HW
LayerCount: 2
Fore
SplineSet
122 -200 m 5
 0 -200 l 5
 0 -78 l 5
 122 -78 l 5
 122 -200 l 5
122 51 m 1
 0 51 l 1
 0 173 l 1
 122 173 l 1
 122 51 l 1
122 176 m 1
 0 176 l 1
 0 298 l 1
 122 298 l 1
 122 176 l 1
122 302 m 1
 0 302 l 1
 0 424 l 1
 122 424 l 1
 122 302 l 1
122 678 m 1
 0 678 l 1
 0 800 l 1
 122 800 l 1
 122 678 l 1
EndSplineSet
Validated: 1
EndChar

StartChar: ordmasculine
Encoding: 186 186 187
Width: 123
Flags: HW
LayerCount: 2
Fore
SplineSet
122 -200 m 5
 0 -200 l 5
 0 -78 l 5
 122 -78 l 5
 122 -200 l 5
122 51 m 1
 0 51 l 1
 0 173 l 1
 122 173 l 1
 122 51 l 1
122 176 m 1
 0 176 l 1
 0 298 l 1
 122 298 l 1
 122 176 l 1
122 302 m 1
 0 302 l 1
 0 424 l 1
 122 424 l 1
 122 302 l 1
122 552 m 1
 0 552 l 1
 0 675 l 1
 122 675 l 1
 122 552 l 1
EndSplineSet
Validated: 1
EndChar

StartChar: guillemotright
Encoding: 187 187 188
Width: 123
Flags: HW
LayerCount: 2
Fore
SplineSet
122 -200 m 5
 0 -200 l 5
 0 -78 l 5
 122 -78 l 5
 122 -200 l 5
122 51 m 1
 0 51 l 1
 0 173 l 1
 122 173 l 1
 122 51 l 1
122 176 m 1
 0 176 l 1
 0 298 l 1
 122 298 l 1
 122 176 l 1
122 302 m 1
 0 302 l 1
 0 424 l 1
 122 424 l 1
 122 302 l 1
122 552 m 1
 0 552 l 1
 0 675 l 1
 122 675 l 1
 122 552 l 1
122 678 m 1
 0 678 l 1
 0 800 l 1
 122 800 l 1
 122 678 l 1
EndSplineSet
Validated: 1
EndChar

StartChar: onequarter
Encoding: 188 188 189
Width: 123
Flags: HW
LayerCount: 2
Fore
SplineSet
122 -200 m 5
 0 -200 l 5
 0 -78 l 5
 122 -78 l 5
 122 -200 l 5
122 51 m 1
 0 51 l 1
 0 173 l 1
 122 173 l 1
 122 51 l 1
122 176 m 1
 0 176 l 1
 0 298 l 1
 122 298 l 1
 122 176 l 1
122 302 m 1
 0 302 l 1
 0 424 l 1
 122 424 l 1
 122 302 l 1
122 427 m 1
 0 427 l 1
 0 549 l 1
 122 549 l 1
 122 427 l 1
EndSplineSet
Validated: 1
EndChar

StartChar: onehalf
Encoding: 189 189 190
Width: 123
Flags: HW
LayerCount: 2
Fore
SplineSet
122 -200 m 5
 0 -200 l 5
 0 -78 l 5
 122 -78 l 5
 122 -200 l 5
122 51 m 1
 0 51 l 1
 0 173 l 1
 122 173 l 1
 122 51 l 1
122 176 m 1
 0 176 l 1
 0 298 l 1
 122 298 l 1
 122 176 l 1
122 302 m 1
 0 302 l 1
 0 424 l 1
 122 424 l 1
 122 302 l 1
122 427 m 1
 0 427 l 1
 0 549 l 1
 122 549 l 1
 122 427 l 1
122 678 m 1
 0 678 l 1
 0 800 l 1
 122 800 l 1
 122 678 l 1
EndSplineSet
Validated: 1
EndChar

StartChar: threequarters
Encoding: 190 190 191
Width: 123
Flags: HW
LayerCount: 2
Fore
SplineSet
122 -200 m 5
 0 -200 l 5
 0 -78 l 5
 122 -78 l 5
 122 -200 l 5
122 51 m 1
 0 51 l 1
 0 173 l 1
 122 173 l 1
 122 51 l 1
122 176 m 1
 0 176 l 1
 0 298 l 1
 122 298 l 1
 122 176 l 1
122 302 m 1
 0 302 l 1
 0 424 l 1
 122 424 l 1
 122 302 l 1
122 427 m 1
 0 427 l 1
 0 549 l 1
 122 549 l 1
 122 427 l 1
122 552 m 1
 0 552 l 1
 0 675 l 1
 122 675 l 1
 122 552 l 1
EndSplineSet
Validated: 1
EndChar

StartChar: questiondown
Encoding: 191 191 192
Width: 123
Flags: HW
LayerCount: 2
Fore
SplineSet
122 -200 m 5
 0 -200 l 5
 0 -78 l 5
 122 -78 l 5
 122 -200 l 5
122 51 m 1
 0 51 l 1
 0 173 l 1
 122 173 l 1
 122 51 l 1
122 176 m 1
 0 176 l 1
 0 298 l 1
 122 298 l 1
 122 176 l 1
122 302 m 1
 0 302 l 1
 0 424 l 1
 122 424 l 1
 122 302 l 1
122 427 m 1
 0 427 l 1
 0 549 l 1
 122 549 l 1
 122 427 l 1
122 552 m 1
 0 552 l 1
 0 675 l 1
 122 675 l 1
 122 552 l 1
122 678 m 1
 0 678 l 1
 0 800 l 1
 122 800 l 1
 122 678 l 1
EndSplineSet
Validated: 1
EndChar

StartChar: Agrave
Encoding: 192 192 193
Width: 123
Flags: HW
LayerCount: 2
Fore
SplineSet
122 -200 m 5
 0 -200 l 5
 0 -78 l 5
 122 -78 l 5
 122 -200 l 5
122 -75 m 1
 0 -75 l 1
 0 48 l 1
 122 48 l 1
 122 -75 l 1
EndSplineSet
Validated: 1
EndChar

StartChar: Aacute
Encoding: 193 193 194
Width: 123
Flags: HW
LayerCount: 2
Fore
SplineSet
122 -200 m 5
 0 -200 l 5
 0 -78 l 5
 122 -78 l 5
 122 -200 l 5
122 -75 m 1
 0 -75 l 1
 0 48 l 1
 122 48 l 1
 122 -75 l 1
122 678 m 1
 0 678 l 1
 0 800 l 1
 122 800 l 1
 122 678 l 1
EndSplineSet
Validated: 1
EndChar

StartChar: Acircumflex
Encoding: 194 194 195
Width: 123
Flags: HW
LayerCount: 2
Fore
SplineSet
122 -200 m 5
 0 -200 l 5
 0 -78 l 5
 122 -78 l 5
 122 -200 l 5
122 -75 m 1
 0 -75 l 1
 0 48 l 1
 122 48 l 1
 122 -75 l 1
122 552 m 1
 0 552 l 1
 0 675 l 1
 122 675 l 1
 122 552 l 1
EndSplineSet
Validated: 1
EndChar

StartChar: Atilde
Encoding: 195 195 196
Width: 123
Flags: HW
LayerCount: 2
Fore
SplineSet
122 -200 m 5
 0 -200 l 5
 0 -78 l 5
 122 -78 l 5
 122 -200 l 5
122 -75 m 1
 0 -75 l 1
 0 48 l 1
 122 48 l 1
 122 -75 l 1
122 552 m 1
 0 552 l 1
 0 675 l 1
 122 675 l 1
 122 552 l 1
122 678 m 1
 0 678 l 1
 0 800 l 1
 122 800 l 1
 122 678 l 1
EndSplineSet
Validated: 1
EndChar

StartChar: Adieresis
Encoding: 196 196 197
Width: 123
Flags: HW
LayerCount: 2
Fore
SplineSet
122 -200 m 5
 0 -200 l 5
 0 -78 l 5
 122 -78 l 5
 122 -200 l 5
122 -75 m 1
 0 -75 l 1
 0 48 l 1
 122 48 l 1
 122 -75 l 1
122 427 m 1
 0 427 l 1
 0 549 l 1
 122 549 l 1
 122 427 l 1
EndSplineSet
Validated: 1
EndChar

StartChar: Aring
Encoding: 197 197 198
Width: 123
Flags: HW
LayerCount: 2
Fore
SplineSet
122 -200 m 5
 0 -200 l 5
 0 -78 l 5
 122 -78 l 5
 122 -200 l 5
122 -75 m 1
 0 -75 l 1
 0 48 l 1
 122 48 l 1
 122 -75 l 1
122 427 m 1
 0 427 l 1
 0 549 l 1
 122 549 l 1
 122 427 l 1
122 678 m 1
 0 678 l 1
 0 800 l 1
 122 800 l 1
 122 678 l 1
EndSplineSet
Validated: 1
EndChar

StartChar: AE
Encoding: 198 198 199
Width: 123
Flags: HW
LayerCount: 2
Fore
SplineSet
122 -200 m 5
 0 -200 l 5
 0 -78 l 5
 122 -78 l 5
 122 -200 l 5
122 -75 m 1
 0 -75 l 1
 0 48 l 1
 122 48 l 1
 122 -75 l 1
122 427 m 1
 0 427 l 1
 0 549 l 1
 122 549 l 1
 122 427 l 1
122 552 m 1
 0 552 l 1
 0 675 l 1
 122 675 l 1
 122 552 l 1
EndSplineSet
Validated: 1
EndChar

StartChar: Ccedilla
Encoding: 199 199 200
Width: 123
Flags: HW
LayerCount: 2
Fore
SplineSet
122 -200 m 5
 0 -200 l 5
 0 -78 l 5
 122 -78 l 5
 122 -200 l 5
122 -75 m 1
 0 -75 l 1
 0 48 l 1
 122 48 l 1
 122 -75 l 1
122 427 m 1
 0 427 l 1
 0 549 l 1
 122 549 l 1
 122 427 l 1
122 552 m 1
 0 552 l 1
 0 675 l 1
 122 675 l 1
 122 552 l 1
122 678 m 1
 0 678 l 1
 0 800 l 1
 122 800 l 1
 122 678 l 1
EndSplineSet
Validated: 1
EndChar

StartChar: Egrave
Encoding: 200 200 201
Width: 123
Flags: HW
LayerCount: 2
Fore
SplineSet
122 -200 m 5
 0 -200 l 5
 0 -78 l 5
 122 -78 l 5
 122 -200 l 5
122 -75 m 1
 0 -75 l 1
 0 48 l 1
 122 48 l 1
 122 -75 l 1
122 302 m 1
 0 302 l 1
 0 424 l 1
 122 424 l 1
 122 302 l 1
EndSplineSet
Validated: 1
EndChar

StartChar: Eacute
Encoding: 201 201 202
Width: 123
Flags: HW
LayerCount: 2
Fore
SplineSet
122 -200 m 5
 0 -200 l 5
 0 -78 l 5
 122 -78 l 5
 122 -200 l 5
122 -75 m 1
 0 -75 l 1
 0 48 l 1
 122 48 l 1
 122 -75 l 1
122 302 m 1
 0 302 l 1
 0 424 l 1
 122 424 l 1
 122 302 l 1
122 678 m 1
 0 678 l 1
 0 800 l 1
 122 800 l 1
 122 678 l 1
EndSplineSet
Validated: 1
EndChar

StartChar: Ecircumflex
Encoding: 202 202 203
Width: 123
Flags: HW
LayerCount: 2
Fore
SplineSet
122 -200 m 5
 0 -200 l 5
 0 -78 l 5
 122 -78 l 5
 122 -200 l 5
122 -75 m 1
 0 -75 l 1
 0 48 l 1
 122 48 l 1
 122 -75 l 1
122 302 m 1
 0 302 l 1
 0 424 l 1
 122 424 l 1
 122 302 l 1
122 552 m 1
 0 552 l 1
 0 675 l 1
 122 675 l 1
 122 552 l 1
EndSplineSet
Validated: 1
EndChar

StartChar: Edieresis
Encoding: 203 203 204
Width: 123
Flags: HW
LayerCount: 2
Fore
SplineSet
122 -200 m 5
 0 -200 l 5
 0 -78 l 5
 122 -78 l 5
 122 -200 l 5
122 -75 m 1
 0 -75 l 1
 0 48 l 1
 122 48 l 1
 122 -75 l 1
122 302 m 1
 0 302 l 1
 0 424 l 1
 122 424 l 1
 122 302 l 1
122 552 m 1
 0 552 l 1
 0 675 l 1
 122 675 l 1
 122 552 l 1
122 678 m 1
 0 678 l 1
 0 800 l 1
 122 800 l 1
 122 678 l 1
EndSplineSet
Validated: 1
EndChar

StartChar: Igrave
Encoding: 204 204 205
Width: 123
Flags: HW
LayerCount: 2
Fore
SplineSet
122 -200 m 5
 0 -200 l 5
 0 -78 l 5
 122 -78 l 5
 122 -200 l 5
122 -75 m 1
 0 -75 l 1
 0 48 l 1
 122 48 l 1
 122 -75 l 1
122 302 m 1
 0 302 l 1
 0 424 l 1
 122 424 l 1
 122 302 l 1
122 427 m 1
 0 427 l 1
 0 549 l 1
 122 549 l 1
 122 427 l 1
EndSplineSet
Validated: 1
EndChar

StartChar: Iacute
Encoding: 205 205 206
Width: 123
Flags: HW
LayerCount: 2
Fore
SplineSet
122 -200 m 5
 0 -200 l 5
 0 -78 l 5
 122 -78 l 5
 122 -200 l 5
122 -75 m 1
 0 -75 l 1
 0 48 l 1
 122 48 l 1
 122 -75 l 1
122 302 m 1
 0 302 l 1
 0 424 l 1
 122 424 l 1
 122 302 l 1
122 427 m 1
 0 427 l 1
 0 549 l 1
 122 549 l 1
 122 427 l 1
122 678 m 1
 0 678 l 1
 0 800 l 1
 122 800 l 1
 122 678 l 1
EndSplineSet
Validated: 1
EndChar

StartChar: Icircumflex
Encoding: 206 206 207
Width: 123
Flags: HW
LayerCount: 2
Fore
SplineSet
122 -200 m 5
 0 -200 l 5
 0 -78 l 5
 122 -78 l 5
 122 -200 l 5
122 -75 m 1
 0 -75 l 1
 0 48 l 1
 122 48 l 1
 122 -75 l 1
122 302 m 1
 0 302 l 1
 0 424 l 1
 122 424 l 1
 122 302 l 1
122 427 m 1
 0 427 l 1
 0 549 l 1
 122 549 l 1
 122 427 l 1
122 552 m 1
 0 552 l 1
 0 675 l 1
 122 675 l 1
 122 552 l 1
EndSplineSet
Validated: 1
EndChar

StartChar: Idieresis
Encoding: 207 207 208
Width: 123
Flags: HW
LayerCount: 2
Fore
SplineSet
122 -200 m 5
 0 -200 l 5
 0 -78 l 5
 122 -78 l 5
 122 -200 l 5
122 -75 m 1
 0 -75 l 1
 0 48 l 1
 122 48 l 1
 122 -75 l 1
122 302 m 1
 0 302 l 1
 0 424 l 1
 122 424 l 1
 122 302 l 1
122 427 m 1
 0 427 l 1
 0 549 l 1
 122 549 l 1
 122 427 l 1
122 552 m 1
 0 552 l 1
 0 675 l 1
 122 675 l 1
 122 552 l 1
122 678 m 1
 0 678 l 1
 0 800 l 1
 122 800 l 1
 122 678 l 1
EndSplineSet
Validated: 1
EndChar

StartChar: Eth
Encoding: 208 208 209
Width: 123
Flags: HW
LayerCount: 2
Fore
SplineSet
122 -200 m 5
 0 -200 l 5
 0 -78 l 5
 122 -78 l 5
 122 -200 l 5
122 -75 m 1
 0 -75 l 1
 0 48 l 1
 122 48 l 1
 122 -75 l 1
122 176 m 1
 0 176 l 1
 0 298 l 1
 122 298 l 1
 122 176 l 1
EndSplineSet
Validated: 1
EndChar

StartChar: Ntilde
Encoding: 209 209 210
Width: 123
Flags: HW
LayerCount: 2
Fore
SplineSet
122 -200 m 5
 0 -200 l 5
 0 -78 l 5
 122 -78 l 5
 122 -200 l 5
122 -75 m 1
 0 -75 l 1
 0 48 l 1
 122 48 l 1
 122 -75 l 1
122 176 m 1
 0 176 l 1
 0 298 l 1
 122 298 l 1
 122 176 l 1
122 678 m 1
 0 678 l 1
 0 800 l 1
 122 800 l 1
 122 678 l 1
EndSplineSet
Validated: 1
EndChar

StartChar: Ograve
Encoding: 210 210 211
Width: 123
Flags: HW
LayerCount: 2
Fore
SplineSet
122 -200 m 5
 0 -200 l 5
 0 -78 l 5
 122 -78 l 5
 122 -200 l 5
122 -75 m 1
 0 -75 l 1
 0 48 l 1
 122 48 l 1
 122 -75 l 1
122 176 m 1
 0 176 l 1
 0 298 l 1
 122 298 l 1
 122 176 l 1
122 552 m 1
 0 552 l 1
 0 675 l 1
 122 675 l 1
 122 552 l 1
EndSplineSet
Validated: 1
EndChar

StartChar: Oacute
Encoding: 211 211 212
Width: 123
Flags: HW
LayerCount: 2
Fore
SplineSet
122 -200 m 5
 0 -200 l 5
 0 -78 l 5
 122 -78 l 5
 122 -200 l 5
122 -75 m 1
 0 -75 l 1
 0 48 l 1
 122 48 l 1
 122 -75 l 1
122 176 m 1
 0 176 l 1
 0 298 l 1
 122 298 l 1
 122 176 l 1
122 552 m 1
 0 552 l 1
 0 675 l 1
 122 675 l 1
 122 552 l 1
122 678 m 1
 0 678 l 1
 0 800 l 1
 122 800 l 1
 122 678 l 1
EndSplineSet
Validated: 1
EndChar

StartChar: Ocircumflex
Encoding: 212 212 213
Width: 123
Flags: HW
LayerCount: 2
Fore
SplineSet
122 -200 m 5
 0 -200 l 5
 0 -78 l 5
 122 -78 l 5
 122 -200 l 5
122 -75 m 1
 0 -75 l 1
 0 48 l 1
 122 48 l 1
 122 -75 l 1
122 176 m 1
 0 176 l 1
 0 298 l 1
 122 298 l 1
 122 176 l 1
122 427 m 1
 0 427 l 1
 0 549 l 1
 122 549 l 1
 122 427 l 1
EndSplineSet
Validated: 1
EndChar

StartChar: Otilde
Encoding: 213 213 214
Width: 123
Flags: HW
LayerCount: 2
Fore
SplineSet
122 -200 m 5
 0 -200 l 5
 0 -78 l 5
 122 -78 l 5
 122 -200 l 5
122 -75 m 1
 0 -75 l 1
 0 48 l 1
 122 48 l 1
 122 -75 l 1
122 176 m 1
 0 176 l 1
 0 298 l 1
 122 298 l 1
 122 176 l 1
122 427 m 1
 0 427 l 1
 0 549 l 1
 122 549 l 1
 122 427 l 1
122 678 m 1
 0 678 l 1
 0 800 l 1
 122 800 l 1
 122 678 l 1
EndSplineSet
Validated: 1
EndChar

StartChar: Odieresis
Encoding: 214 214 215
Width: 123
Flags: HW
LayerCount: 2
Fore
SplineSet
122 -200 m 5
 0 -200 l 5
 0 -78 l 5
 122 -78 l 5
 122 -200 l 5
122 -75 m 1
 0 -75 l 1
 0 48 l 1
 122 48 l 1
 122 -75 l 1
122 176 m 1
 0 176 l 1
 0 298 l 1
 122 298 l 1
 122 176 l 1
122 427 m 1
 0 427 l 1
 0 549 l 1
 122 549 l 1
 122 427 l 1
122 552 m 1
 0 552 l 1
 0 675 l 1
 122 675 l 1
 122 552 l 1
EndSplineSet
Validated: 1
EndChar

StartChar: multiply
Encoding: 215 215 216
Width: 123
Flags: HW
LayerCount: 2
Fore
SplineSet
122 -200 m 5
 0 -200 l 5
 0 -78 l 5
 122 -78 l 5
 122 -200 l 5
122 -75 m 1
 0 -75 l 1
 0 48 l 1
 122 48 l 1
 122 -75 l 1
122 176 m 1
 0 176 l 1
 0 298 l 1
 122 298 l 1
 122 176 l 1
122 427 m 1
 0 427 l 1
 0 549 l 1
 122 549 l 1
 122 427 l 1
122 552 m 1
 0 552 l 1
 0 675 l 1
 122 675 l 1
 122 552 l 1
122 678 m 1
 0 678 l 1
 0 800 l 1
 122 800 l 1
 122 678 l 1
EndSplineSet
Validated: 1
EndChar

StartChar: Oslash
Encoding: 216 216 217
Width: 123
Flags: HW
LayerCount: 2
Fore
SplineSet
122 -200 m 5
 0 -200 l 5
 0 -78 l 5
 122 -78 l 5
 122 -200 l 5
122 -75 m 1
 0 -75 l 1
 0 48 l 1
 122 48 l 1
 122 -75 l 1
122 176 m 1
 0 176 l 1
 0 298 l 1
 122 298 l 1
 122 176 l 1
122 302 m 1
 0 302 l 1
 0 424 l 1
 122 424 l 1
 122 302 l 1
EndSplineSet
Validated: 1
EndChar

StartChar: Ugrave
Encoding: 217 217 218
Width: 123
Flags: HW
LayerCount: 2
Fore
SplineSet
122 -200 m 5
 0 -200 l 5
 0 -78 l 5
 122 -78 l 5
 122 -200 l 5
122 -75 m 1
 0 -75 l 1
 0 48 l 1
 122 48 l 1
 122 -75 l 1
122 176 m 1
 0 176 l 1
 0 298 l 1
 122 298 l 1
 122 176 l 1
122 302 m 1
 0 302 l 1
 0 424 l 1
 122 424 l 1
 122 302 l 1
122 678 m 1
 0 678 l 1
 0 800 l 1
 122 800 l 1
 122 678 l 1
EndSplineSet
Validated: 1
EndChar

StartChar: Uacute
Encoding: 218 218 219
Width: 123
Flags: HW
LayerCount: 2
Fore
SplineSet
122 -200 m 5
 0 -200 l 5
 0 -78 l 5
 122 -78 l 5
 122 -200 l 5
122 -75 m 1
 0 -75 l 1
 0 48 l 1
 122 48 l 1
 122 -75 l 1
122 176 m 1
 0 176 l 1
 0 298 l 1
 122 298 l 1
 122 176 l 1
122 302 m 1
 0 302 l 1
 0 424 l 1
 122 424 l 1
 122 302 l 1
122 552 m 1
 0 552 l 1
 0 675 l 1
 122 675 l 1
 122 552 l 1
EndSplineSet
Validated: 1
EndChar

StartChar: Ucircumflex
Encoding: 219 219 220
Width: 123
Flags: HW
LayerCount: 2
Fore
SplineSet
122 -200 m 5
 0 -200 l 5
 0 -78 l 5
 122 -78 l 5
 122 -200 l 5
122 -75 m 1
 0 -75 l 1
 0 48 l 1
 122 48 l 1
 122 -75 l 1
122 176 m 1
 0 176 l 1
 0 298 l 1
 122 298 l 1
 122 176 l 1
122 302 m 1
 0 302 l 1
 0 424 l 1
 122 424 l 1
 122 302 l 1
122 552 m 1
 0 552 l 1
 0 675 l 1
 122 675 l 1
 122 552 l 1
122 678 m 1
 0 678 l 1
 0 800 l 1
 122 800 l 1
 122 678 l 1
EndSplineSet
Validated: 1
EndChar

StartChar: Udieresis
Encoding: 220 220 221
Width: 123
Flags: HW
LayerCount: 2
Fore
SplineSet
122 -200 m 5
 0 -200 l 5
 0 -78 l 5
 122 -78 l 5
 122 -200 l 5
122 -75 m 1
 0 -75 l 1
 0 48 l 1
 122 48 l 1
 122 -75 l 1
122 176 m 1
 0 176 l 1
 0 298 l 1
 122 298 l 1
 122 176 l 1
122 302 m 1
 0 302 l 1
 0 424 l 1
 122 424 l 1
 122 302 l 1
122 427 m 1
 0 427 l 1
 0 549 l 1
 122 549 l 1
 122 427 l 1
EndSplineSet
Validated: 1
EndChar

StartChar: Yacute
Encoding: 221 221 222
Width: 123
Flags: HW
LayerCount: 2
Fore
SplineSet
122 -200 m 5
 0 -200 l 5
 0 -78 l 5
 122 -78 l 5
 122 -200 l 5
122 -75 m 1
 0 -75 l 1
 0 48 l 1
 122 48 l 1
 122 -75 l 1
122 176 m 1
 0 176 l 1
 0 298 l 1
 122 298 l 1
 122 176 l 1
122 302 m 1
 0 302 l 1
 0 424 l 1
 122 424 l 1
 122 302 l 1
122 427 m 1
 0 427 l 1
 0 549 l 1
 122 549 l 1
 122 427 l 1
122 678 m 1
 0 678 l 1
 0 800 l 1
 122 800 l 1
 122 678 l 1
EndSplineSet
Validated: 1
EndChar

StartChar: Thorn
Encoding: 222 222 223
Width: 123
Flags: HW
LayerCount: 2
Fore
SplineSet
122 -200 m 5
 0 -200 l 5
 0 -78 l 5
 122 -78 l 5
 122 -200 l 5
122 -75 m 1
 0 -75 l 1
 0 48 l 1
 122 48 l 1
 122 -75 l 1
122 176 m 1
 0 176 l 1
 0 298 l 1
 122 298 l 1
 122 176 l 1
122 302 m 1
 0 302 l 1
 0 424 l 1
 122 424 l 1
 122 302 l 1
122 427 m 1
 0 427 l 1
 0 549 l 1
 122 549 l 1
 122 427 l 1
122 552 m 1
 0 552 l 1
 0 675 l 1
 122 675 l 1
 122 552 l 1
EndSplineSet
Validated: 1
EndChar

StartChar: germandbls
Encoding: 223 223 224
Width: 123
Flags: HW
LayerCount: 2
Fore
SplineSet
122 -200 m 5
 0 -200 l 5
 0 -78 l 5
 122 -78 l 5
 122 -200 l 5
122 -75 m 1
 0 -75 l 1
 0 48 l 1
 122 48 l 1
 122 -75 l 1
122 176 m 1
 0 176 l 1
 0 298 l 1
 122 298 l 1
 122 176 l 1
122 302 m 1
 0 302 l 1
 0 424 l 1
 122 424 l 1
 122 302 l 1
122 427 m 1
 0 427 l 1
 0 549 l 1
 122 549 l 1
 122 427 l 1
122 552 m 1
 0 552 l 1
 0 675 l 1
 122 675 l 1
 122 552 l 1
122 678 m 1
 0 678 l 1
 0 800 l 1
 122 800 l 1
 122 678 l 1
EndSplineSet
Validated: 1
EndChar

StartChar: agrave
Encoding: 224 224 225
Width: 123
Flags: HW
LayerCount: 2
Fore
SplineSet
122 -200 m 5
 0 -200 l 5
 0 -78 l 5
 122 -78 l 5
 122 -200 l 5
122 -75 m 1
 0 -75 l 1
 0 48 l 1
 122 48 l 1
 122 -75 l 1
122 51 m 1
 0 51 l 1
 0 173 l 1
 122 173 l 1
 122 51 l 1
EndSplineSet
Validated: 1
EndChar

StartChar: aacute
Encoding: 225 225 226
Width: 123
Flags: HW
LayerCount: 2
Fore
SplineSet
122 -200 m 5
 0 -200 l 5
 0 -78 l 5
 122 -78 l 5
 122 -200 l 5
122 -75 m 1
 0 -75 l 1
 0 48 l 1
 122 48 l 1
 122 -75 l 1
122 51 m 1
 0 51 l 1
 0 173 l 1
 122 173 l 1
 122 51 l 1
122 678 m 1
 0 678 l 1
 0 800 l 1
 122 800 l 1
 122 678 l 1
EndSplineSet
Validated: 1
EndChar

StartChar: acircumflex
Encoding: 226 226 227
Width: 123
Flags: HW
LayerCount: 2
Fore
SplineSet
122 -200 m 5
 0 -200 l 5
 0 -78 l 5
 122 -78 l 5
 122 -200 l 5
122 -75 m 1
 0 -75 l 1
 0 48 l 1
 122 48 l 1
 122 -75 l 1
122 51 m 1
 0 51 l 1
 0 173 l 1
 122 173 l 1
 122 51 l 1
122 552 m 1
 0 552 l 1
 0 675 l 1
 122 675 l 1
 122 552 l 1
EndSplineSet
Validated: 1
EndChar

StartChar: atilde
Encoding: 227 227 228
Width: 123
Flags: HW
LayerCount: 2
Fore
SplineSet
122 -200 m 5
 0 -200 l 5
 0 -78 l 5
 122 -78 l 5
 122 -200 l 5
122 -75 m 1
 0 -75 l 1
 0 48 l 1
 122 48 l 1
 122 -75 l 1
122 51 m 1
 0 51 l 1
 0 173 l 1
 122 173 l 1
 122 51 l 1
122 552 m 1
 0 552 l 1
 0 675 l 1
 122 675 l 1
 122 552 l 1
122 678 m 1
 0 678 l 1
 0 800 l 1
 122 800 l 1
 122 678 l 1
EndSplineSet
Validated: 1
EndChar

StartChar: adieresis
Encoding: 228 228 229
Width: 123
Flags: HW
LayerCount: 2
Fore
SplineSet
122 -200 m 5
 0 -200 l 5
 0 -78 l 5
 122 -78 l 5
 122 -200 l 5
122 -75 m 1
 0 -75 l 1
 0 48 l 1
 122 48 l 1
 122 -75 l 1
122 51 m 1
 0 51 l 1
 0 173 l 1
 122 173 l 1
 122 51 l 1
122 427 m 1
 0 427 l 1
 0 549 l 1
 122 549 l 1
 122 427 l 1
EndSplineSet
Validated: 1
EndChar

StartChar: aring
Encoding: 229 229 230
Width: 123
Flags: HW
LayerCount: 2
Fore
SplineSet
122 -200 m 5
 0 -200 l 5
 0 -78 l 5
 122 -78 l 5
 122 -200 l 5
122 -75 m 1
 0 -75 l 1
 0 48 l 1
 122 48 l 1
 122 -75 l 1
122 51 m 1
 0 51 l 1
 0 173 l 1
 122 173 l 1
 122 51 l 1
122 427 m 1
 0 427 l 1
 0 549 l 1
 122 549 l 1
 122 427 l 1
122 678 m 1
 0 678 l 1
 0 800 l 1
 122 800 l 1
 122 678 l 1
EndSplineSet
Validated: 1
EndChar

StartChar: ae
Encoding: 230 230 231
Width: 123
Flags: HW
LayerCount: 2
Fore
SplineSet
122 -200 m 5
 0 -200 l 5
 0 -78 l 5
 122 -78 l 5
 122 -200 l 5
122 -75 m 1
 0 -75 l 1
 0 48 l 1
 122 48 l 1
 122 -75 l 1
122 51 m 1
 0 51 l 1
 0 173 l 1
 122 173 l 1
 122 51 l 1
122 427 m 1
 0 427 l 1
 0 549 l 1
 122 549 l 1
 122 427 l 1
122 552 m 1
 0 552 l 1
 0 675 l 1
 122 675 l 1
 122 552 l 1
EndSplineSet
Validated: 1
EndChar

StartChar: ccedilla
Encoding: 231 231 232
Width: 123
Flags: HW
LayerCount: 2
Fore
SplineSet
122 -200 m 5
 0 -200 l 5
 0 -78 l 5
 122 -78 l 5
 122 -200 l 5
122 -75 m 1
 0 -75 l 1
 0 48 l 1
 122 48 l 1
 122 -75 l 1
122 51 m 1
 0 51 l 1
 0 173 l 1
 122 173 l 1
 122 51 l 1
122 427 m 1
 0 427 l 1
 0 549 l 1
 122 549 l 1
 122 427 l 1
122 552 m 1
 0 552 l 1
 0 675 l 1
 122 675 l 1
 122 552 l 1
122 678 m 1
 0 678 l 1
 0 800 l 1
 122 800 l 1
 122 678 l 1
EndSplineSet
Validated: 1
EndChar

StartChar: egrave
Encoding: 232 232 233
Width: 123
Flags: HW
LayerCount: 2
Fore
SplineSet
122 -200 m 5
 0 -200 l 5
 0 -78 l 5
 122 -78 l 5
 122 -200 l 5
122 -75 m 1
 0 -75 l 1
 0 48 l 1
 122 48 l 1
 122 -75 l 1
122 51 m 1
 0 51 l 1
 0 173 l 1
 122 173 l 1
 122 51 l 1
122 302 m 1
 0 302 l 1
 0 424 l 1
 122 424 l 1
 122 302 l 1
EndSplineSet
Validated: 1
EndChar

StartChar: eacute
Encoding: 233 233 234
Width: 123
Flags: HW
LayerCount: 2
Fore
SplineSet
122 -200 m 5
 0 -200 l 5
 0 -78 l 5
 122 -78 l 5
 122 -200 l 5
122 -75 m 1
 0 -75 l 1
 0 48 l 1
 122 48 l 1
 122 -75 l 1
122 51 m 1
 0 51 l 1
 0 173 l 1
 122 173 l 1
 122 51 l 1
122 302 m 1
 0 302 l 1
 0 424 l 1
 122 424 l 1
 122 302 l 1
122 678 m 1
 0 678 l 1
 0 800 l 1
 122 800 l 1
 122 678 l 1
EndSplineSet
Validated: 1
EndChar

StartChar: ecircumflex
Encoding: 234 234 235
Width: 123
Flags: HW
LayerCount: 2
Fore
SplineSet
122 -200 m 5
 0 -200 l 5
 0 -78 l 5
 122 -78 l 5
 122 -200 l 5
122 -75 m 1
 0 -75 l 1
 0 48 l 1
 122 48 l 1
 122 -75 l 1
122 51 m 1
 0 51 l 1
 0 173 l 1
 122 173 l 1
 122 51 l 1
122 302 m 1
 0 302 l 1
 0 424 l 1
 122 424 l 1
 122 302 l 1
122 552 m 1
 0 552 l 1
 0 675 l 1
 122 675 l 1
 122 552 l 1
EndSplineSet
Validated: 1
EndChar

StartChar: edieresis
Encoding: 235 235 236
Width: 123
Flags: HW
LayerCount: 2
Fore
SplineSet
122 -200 m 5
 0 -200 l 5
 0 -78 l 5
 122 -78 l 5
 122 -200 l 5
122 -75 m 1
 0 -75 l 1
 0 48 l 1
 122 48 l 1
 122 -75 l 1
122 51 m 1
 0 51 l 1
 0 173 l 1
 122 173 l 1
 122 51 l 1
122 302 m 1
 0 302 l 1
 0 424 l 1
 122 424 l 1
 122 302 l 1
122 552 m 1
 0 552 l 1
 0 675 l 1
 122 675 l 1
 122 552 l 1
122 678 m 1
 0 678 l 1
 0 800 l 1
 122 800 l 1
 122 678 l 1
EndSplineSet
Validated: 1
EndChar

StartChar: igrave
Encoding: 236 236 237
Width: 123
Flags: HW
LayerCount: 2
Fore
SplineSet
122 -200 m 5
 0 -200 l 5
 0 -78 l 5
 122 -78 l 5
 122 -200 l 5
122 -75 m 1
 0 -75 l 1
 0 48 l 1
 122 48 l 1
 122 -75 l 1
122 51 m 1
 0 51 l 1
 0 173 l 1
 122 173 l 1
 122 51 l 1
122 302 m 1
 0 302 l 1
 0 424 l 1
 122 424 l 1
 122 302 l 1
122 427 m 1
 0 427 l 1
 0 549 l 1
 122 549 l 1
 122 427 l 1
EndSplineSet
Validated: 1
EndChar

StartChar: iacute
Encoding: 237 237 238
Width: 123
Flags: HW
LayerCount: 2
Fore
SplineSet
122 -200 m 5
 0 -200 l 5
 0 -78 l 5
 122 -78 l 5
 122 -200 l 5
122 -75 m 1
 0 -75 l 1
 0 48 l 1
 122 48 l 1
 122 -75 l 1
122 51 m 1
 0 51 l 1
 0 173 l 1
 122 173 l 1
 122 51 l 1
122 302 m 1
 0 302 l 1
 0 424 l 1
 122 424 l 1
 122 302 l 1
122 427 m 1
 0 427 l 1
 0 549 l 1
 122 549 l 1
 122 427 l 1
122 678 m 1
 0 678 l 1
 0 800 l 1
 122 800 l 1
 122 678 l 1
EndSplineSet
Validated: 1
EndChar

StartChar: icircumflex
Encoding: 238 238 239
Width: 123
Flags: HW
LayerCount: 2
Fore
SplineSet
122 -200 m 5
 0 -200 l 5
 0 -78 l 5
 122 -78 l 5
 122 -200 l 5
122 -75 m 1
 0 -75 l 1
 0 48 l 1
 122 48 l 1
 122 -75 l 1
122 51 m 1
 0 51 l 1
 0 173 l 1
 122 173 l 1
 122 51 l 1
122 302 m 1
 0 302 l 1
 0 424 l 1
 122 424 l 1
 122 302 l 1
122 427 m 1
 0 427 l 1
 0 549 l 1
 122 549 l 1
 122 427 l 1
122 552 m 1
 0 552 l 1
 0 675 l 1
 122 675 l 1
 122 552 l 1
EndSplineSet
Validated: 1
EndChar

StartChar: idieresis
Encoding: 239 239 240
Width: 123
Flags: HW
LayerCount: 2
Fore
SplineSet
122 -200 m 5
 0 -200 l 5
 0 -78 l 5
 122 -78 l 5
 122 -200 l 5
122 -75 m 1
 0 -75 l 1
 0 48 l 1
 122 48 l 1
 122 -75 l 1
122 51 m 1
 0 51 l 1
 0 173 l 1
 122 173 l 1
 122 51 l 1
122 302 m 1
 0 302 l 1
 0 424 l 1
 122 424 l 1
 122 302 l 1
122 427 m 1
 0 427 l 1
 0 549 l 1
 122 549 l 1
 122 427 l 1
122 552 m 1
 0 552 l 1
 0 675 l 1
 122 675 l 1
 122 552 l 1
122 678 m 1
 0 678 l 1
 0 800 l 1
 122 800 l 1
 122 678 l 1
EndSplineSet
Validated: 1
EndChar

StartChar: eth
Encoding: 240 240 241
Width: 123
Flags: HW
LayerCount: 2
Fore
SplineSet
122 -200 m 5
 0 -200 l 5
 0 -78 l 5
 122 -78 l 5
 122 -200 l 5
122 -75 m 1
 0 -75 l 1
 0 48 l 1
 122 48 l 1
 122 -75 l 1
122 51 m 1
 0 51 l 1
 0 173 l 1
 122 173 l 1
 122 51 l 1
122 176 m 1
 0 176 l 1
 0 298 l 1
 122 298 l 1
 122 176 l 1
EndSplineSet
Validated: 1
EndChar

StartChar: ntilde
Encoding: 241 241 242
Width: 123
Flags: HW
LayerCount: 2
Fore
SplineSet
122 -200 m 5
 0 -200 l 5
 0 -78 l 5
 122 -78 l 5
 122 -200 l 5
122 -75 m 1
 0 -75 l 1
 0 48 l 1
 122 48 l 1
 122 -75 l 1
122 51 m 1
 0 51 l 1
 0 173 l 1
 122 173 l 1
 122 51 l 1
122 176 m 1
 0 176 l 1
 0 298 l 1
 122 298 l 1
 122 176 l 1
122 678 m 1
 0 678 l 1
 0 800 l 1
 122 800 l 1
 122 678 l 1
EndSplineSet
Validated: 1
EndChar

StartChar: ograve
Encoding: 242 242 243
Width: 123
Flags: HW
LayerCount: 2
Fore
SplineSet
122 -200 m 5
 0 -200 l 5
 0 -78 l 5
 122 -78 l 5
 122 -200 l 5
122 -75 m 1
 0 -75 l 1
 0 48 l 1
 122 48 l 1
 122 -75 l 1
122 51 m 1
 0 51 l 1
 0 173 l 1
 122 173 l 1
 122 51 l 1
122 176 m 1
 0 176 l 1
 0 298 l 1
 122 298 l 1
 122 176 l 1
122 552 m 1
 0 552 l 1
 0 675 l 1
 122 675 l 1
 122 552 l 1
EndSplineSet
Validated: 1
EndChar

StartChar: oacute
Encoding: 243 243 244
Width: 123
Flags: HW
LayerCount: 2
Fore
SplineSet
122 -200 m 5
 0 -200 l 5
 0 -78 l 5
 122 -78 l 5
 122 -200 l 5
122 -75 m 1
 0 -75 l 1
 0 48 l 1
 122 48 l 1
 122 -75 l 1
122 51 m 1
 0 51 l 1
 0 173 l 1
 122 173 l 1
 122 51 l 1
122 176 m 1
 0 176 l 1
 0 298 l 1
 122 298 l 1
 122 176 l 1
122 552 m 1
 0 552 l 1
 0 675 l 1
 122 675 l 1
 122 552 l 1
122 678 m 1
 0 678 l 1
 0 800 l 1
 122 800 l 1
 122 678 l 1
EndSplineSet
Validated: 1
EndChar

StartChar: ocircumflex
Encoding: 244 244 245
Width: 123
Flags: HW
LayerCount: 2
Fore
SplineSet
122 -200 m 5
 0 -200 l 5
 0 -78 l 5
 122 -78 l 5
 122 -200 l 5
122 -75 m 1
 0 -75 l 1
 0 48 l 1
 122 48 l 1
 122 -75 l 1
122 51 m 1
 0 51 l 1
 0 173 l 1
 122 173 l 1
 122 51 l 1
122 176 m 1
 0 176 l 1
 0 298 l 1
 122 298 l 1
 122 176 l 1
122 427 m 1
 0 427 l 1
 0 549 l 1
 122 549 l 1
 122 427 l 1
EndSplineSet
Validated: 1
EndChar

StartChar: otilde
Encoding: 245 245 246
Width: 123
Flags: HW
LayerCount: 2
Fore
SplineSet
122 -200 m 5
 0 -200 l 5
 0 -78 l 5
 122 -78 l 5
 122 -200 l 5
122 -75 m 1
 0 -75 l 1
 0 48 l 1
 122 48 l 1
 122 -75 l 1
122 51 m 1
 0 51 l 1
 0 173 l 1
 122 173 l 1
 122 51 l 1
122 176 m 1
 0 176 l 1
 0 298 l 1
 122 298 l 1
 122 176 l 1
122 427 m 1
 0 427 l 1
 0 549 l 1
 122 549 l 1
 122 427 l 1
122 678 m 1
 0 678 l 1
 0 800 l 1
 122 800 l 1
 122 678 l 1
EndSplineSet
Validated: 1
EndChar

StartChar: odieresis
Encoding: 246 246 247
Width: 123
Flags: HW
LayerCount: 2
Fore
SplineSet
122 -200 m 5
 0 -200 l 5
 0 -78 l 5
 122 -78 l 5
 122 -200 l 5
122 -75 m 1
 0 -75 l 1
 0 48 l 1
 122 48 l 1
 122 -75 l 1
122 51 m 1
 0 51 l 1
 0 173 l 1
 122 173 l 1
 122 51 l 1
122 176 m 1
 0 176 l 1
 0 298 l 1
 122 298 l 1
 122 176 l 1
122 427 m 1
 0 427 l 1
 0 549 l 1
 122 549 l 1
 122 427 l 1
122 552 m 1
 0 552 l 1
 0 675 l 1
 122 675 l 1
 122 552 l 1
EndSplineSet
Validated: 1
EndChar

StartChar: divide
Encoding: 247 247 248
Width: 123
Flags: HW
LayerCount: 2
Fore
SplineSet
122 -200 m 5
 0 -200 l 5
 0 -78 l 5
 122 -78 l 5
 122 -200 l 5
122 -75 m 1
 0 -75 l 1
 0 48 l 1
 122 48 l 1
 122 -75 l 1
122 51 m 1
 0 51 l 1
 0 173 l 1
 122 173 l 1
 122 51 l 1
122 176 m 1
 0 176 l 1
 0 298 l 1
 122 298 l 1
 122 176 l 1
122 427 m 1
 0 427 l 1
 0 549 l 1
 122 549 l 1
 122 427 l 1
122 552 m 1
 0 552 l 1
 0 675 l 1
 122 675 l 1
 122 552 l 1
122 678 m 1
 0 678 l 1
 0 800 l 1
 122 800 l 1
 122 678 l 1
EndSplineSet
Validated: 1
EndChar

StartChar: oslash
Encoding: 248 248 249
Width: 123
Flags: HW
LayerCount: 2
Fore
SplineSet
122 -200 m 5
 0 -200 l 5
 0 -78 l 5
 122 -78 l 5
 122 -200 l 5
122 -75 m 1
 0 -75 l 1
 0 48 l 1
 122 48 l 1
 122 -75 l 1
122 51 m 1
 0 51 l 1
 0 173 l 1
 122 173 l 1
 122 51 l 1
122 176 m 1
 0 176 l 1
 0 298 l 1
 122 298 l 1
 122 176 l 1
122 302 m 1
 0 302 l 1
 0 424 l 1
 122 424 l 1
 122 302 l 1
EndSplineSet
Validated: 1
EndChar

StartChar: ugrave
Encoding: 249 249 250
Width: 123
Flags: HW
LayerCount: 2
Fore
SplineSet
122 -200 m 5
 0 -200 l 5
 0 -78 l 5
 122 -78 l 5
 122 -200 l 5
122 -75 m 1
 0 -75 l 1
 0 48 l 1
 122 48 l 1
 122 -75 l 1
122 51 m 1
 0 51 l 1
 0 173 l 1
 122 173 l 1
 122 51 l 1
122 176 m 1
 0 176 l 1
 0 298 l 1
 122 298 l 1
 122 176 l 1
122 302 m 1
 0 302 l 1
 0 424 l 1
 122 424 l 1
 122 302 l 1
122 678 m 1
 0 678 l 1
 0 800 l 1
 122 800 l 1
 122 678 l 1
EndSplineSet
Validated: 1
EndChar

StartChar: uacute
Encoding: 250 250 251
Width: 123
Flags: HW
LayerCount: 2
Fore
SplineSet
122 -200 m 5
 0 -200 l 5
 0 -78 l 5
 122 -78 l 5
 122 -200 l 5
122 -75 m 1
 0 -75 l 1
 0 48 l 1
 122 48 l 1
 122 -75 l 1
122 51 m 1
 0 51 l 1
 0 173 l 1
 122 173 l 1
 122 51 l 1
122 176 m 1
 0 176 l 1
 0 298 l 1
 122 298 l 1
 122 176 l 1
122 302 m 1
 0 302 l 1
 0 424 l 1
 122 424 l 1
 122 302 l 1
122 552 m 1
 0 552 l 1
 0 675 l 1
 122 675 l 1
 122 552 l 1
EndSplineSet
Validated: 1
EndChar

StartChar: ucircumflex
Encoding: 251 251 252
Width: 123
Flags: HW
LayerCount: 2
Fore
SplineSet
122 -200 m 5
 0 -200 l 5
 0 -78 l 5
 122 -78 l 5
 122 -200 l 5
122 -75 m 1
 0 -75 l 1
 0 48 l 1
 122 48 l 1
 122 -75 l 1
122 51 m 1
 0 51 l 1
 0 173 l 1
 122 173 l 1
 122 51 l 1
122 176 m 1
 0 176 l 1
 0 298 l 1
 122 298 l 1
 122 176 l 1
122 302 m 1
 0 302 l 1
 0 424 l 1
 122 424 l 1
 122 302 l 1
122 552 m 1
 0 552 l 1
 0 675 l 1
 122 675 l 1
 122 552 l 1
122 678 m 1
 0 678 l 1
 0 800 l 1
 122 800 l 1
 122 678 l 1
EndSplineSet
Validated: 1
EndChar

StartChar: udieresis
Encoding: 252 252 253
Width: 123
Flags: HW
LayerCount: 2
Fore
SplineSet
122 -200 m 5
 0 -200 l 5
 0 -78 l 5
 122 -78 l 5
 122 -200 l 5
122 -75 m 1
 0 -75 l 1
 0 48 l 1
 122 48 l 1
 122 -75 l 1
122 51 m 1
 0 51 l 1
 0 173 l 1
 122 173 l 1
 122 51 l 1
122 176 m 1
 0 176 l 1
 0 298 l 1
 122 298 l 1
 122 176 l 1
122 302 m 1
 0 302 l 1
 0 424 l 1
 122 424 l 1
 122 302 l 1
122 427 m 1
 0 427 l 1
 0 549 l 1
 122 549 l 1
 122 427 l 1
EndSplineSet
Validated: 1
EndChar

StartChar: yacute
Encoding: 253 253 254
Width: 123
Flags: HW
LayerCount: 2
Fore
SplineSet
122 -200 m 5
 0 -200 l 5
 0 -78 l 5
 122 -78 l 5
 122 -200 l 5
122 -75 m 1
 0 -75 l 1
 0 48 l 1
 122 48 l 1
 122 -75 l 1
122 51 m 1
 0 51 l 1
 0 173 l 1
 122 173 l 1
 122 51 l 1
122 176 m 1
 0 176 l 1
 0 298 l 1
 122 298 l 1
 122 176 l 1
122 302 m 1
 0 302 l 1
 0 424 l 1
 122 424 l 1
 122 302 l 1
122 427 m 1
 0 427 l 1
 0 549 l 1
 122 549 l 1
 122 427 l 1
122 678 m 1
 0 678 l 1
 0 800 l 1
 122 800 l 1
 122 678 l 1
EndSplineSet
Validated: 1
EndChar

StartChar: thorn
Encoding: 254 254 255
Width: 123
Flags: HW
LayerCount: 2
Fore
SplineSet
122 -200 m 5
 0 -200 l 5
 0 -78 l 5
 122 -78 l 5
 122 -200 l 5
122 -75 m 1
 0 -75 l 1
 0 48 l 1
 122 48 l 1
 122 -75 l 1
122 51 m 1
 0 51 l 1
 0 173 l 1
 122 173 l 1
 122 51 l 1
122 176 m 1
 0 176 l 1
 0 298 l 1
 122 298 l 1
 122 176 l 1
122 302 m 1
 0 302 l 1
 0 424 l 1
 122 424 l 1
 122 302 l 1
122 427 m 1
 0 427 l 1
 0 549 l 1
 122 549 l 1
 122 427 l 1
122 552 m 1
 0 552 l 1
 0 675 l 1
 122 675 l 1
 122 552 l 1
EndSplineSet
Validated: 1
EndChar
